<?xml version="1.0" encoding="UTF-8"?>
<svg version="1.1" xmlns="http://www.w3.org/2000/svg" width="154" height="148">
<path d="M0 0 C0.78153946 -0.00428513 1.56307892 -0.00857025 2.36830139 -0.01298523 C4.0182295 -0.0187179 5.66818288 -0.01923662 7.31811523 -0.01489258 C9.83556456 -0.01173392 12.35183659 -0.03519911 14.86914062 -0.06054688 C16.47525894 -0.0628202 18.0813804 -0.06352321 19.6875 -0.0625 C20.43660141 -0.07170975 21.18570282 -0.08091949 21.95750427 -0.09040833 C26.45312275 -0.05082684 29.35696883 0.49080358 32.91015625 3.30078125 C34.7109375 6.21875 34.7109375 6.21875 36.22265625 9.48828125 C36.73441406 10.57496094 37.24617188 11.66164063 37.7734375 12.78125 C38.14855469 13.61269531 38.52367188 14.44414062 38.91015625 15.30078125 C39.49804932 15.29554443 40.08594238 15.29030762 40.69165039 15.28491211 C50.2845949 15.21101229 59.88641025 15.14184417 69.47265625 15.55078125 C70.60832031 15.5971875 71.74398437 15.64359375 72.9140625 15.69140625 C76.57558897 16.4361235 78.27193329 17.68574127 80.91015625 20.30078125 C82.57750893 23.09591197 83.16131815 25.15197351 83.17085266 28.39268494 C83.17793747 29.19871658 83.18502228 30.00474823 83.19232178 30.83520508 C83.18984436 31.71063965 83.18736694 32.58607422 83.18481445 33.48803711 C83.18992538 34.41693253 83.19503632 35.34582794 83.20030212 36.3028717 C83.21420371 39.37385498 83.21324095 42.44461399 83.2109375 45.515625 C83.21482405 47.65027449 83.21915863 49.78492321 83.22392273 51.91957092 C83.23138611 56.3942414 83.23109273 60.86883298 83.22583008 65.34350586 C83.22003461 71.07807463 83.23696791 76.81232052 83.26017475 82.5468359 C83.27490528 86.95546864 83.27578472 91.36402348 83.27266502 95.77267647 C83.27317855 97.88698529 83.27842221 100.00129844 83.28847694 102.11558342 C83.30081097 105.07197948 83.29406776 108.02774492 83.2824707 110.98413086 C83.29011444 111.8575412 83.29775818 112.73095154 83.30563354 113.63082886 C83.26479633 118.33994867 83.01536714 121.51494462 79.91015625 125.30078125 C76.74754674 128.17878526 74.69348685 128.67675108 70.45155334 128.68173218 C69.34261215 128.69019165 68.23367096 128.69865112 67.09112549 128.70736694 C65.87906433 128.70129425 64.66700317 128.69522156 63.41821289 128.68896484 C61.49817696 128.69685028 61.49817696 128.69685028 59.53935242 128.70489502 C56.03101427 128.71856822 52.52294089 128.71326975 49.01459813 128.70375776 C45.34138481 128.6961595 41.66819407 128.70320739 37.99497986 128.70791626 C31.8254693 128.71337402 25.65606647 128.70618242 19.48657227 128.69189453 C12.35763311 128.67557513 5.22895145 128.68085114 -1.89998144 128.69737375 C-8.0232542 128.7109967 -14.14644952 128.71290412 -20.26973253 128.70505774 C-23.92572884 128.70038472 -27.5816042 128.69974595 -31.2375927 128.70966721 C-35.31471831 128.71995836 -39.39140161 128.7056863 -43.46850586 128.68896484 C-44.67854279 128.69503754 -45.88857971 128.70111023 -47.13528442 128.70736694 C-48.80292595 128.69467773 -48.80292595 128.69467773 -50.5042572 128.68173218 C-51.46786635 128.6806011 -52.43147551 128.67947002 -53.42428493 128.67830467 C-56.6628715 128.21962326 -58.49905297 127.28588392 -61.08984375 125.30078125 C-64.28672239 119.8096149 -64.52576121 113.42098668 -64.47802734 107.22021484 C-64.4832843 106.36207687 -64.48854126 105.5039389 -64.49395752 104.61979675 C-64.50704927 101.81274654 -64.49845972 99.00627367 -64.48828125 96.19921875 C-64.49030473 94.2334482 -64.49321844 92.26767839 -64.49697876 90.3019104 C-64.50138713 86.19501554 -64.49501769 82.08831723 -64.48095703 77.98144531 C-64.46384348 72.72809443 -64.47372959 67.47520269 -64.49167442 62.22186852 C-64.50253321 58.16743532 -64.49905668 54.11311038 -64.49129105 50.05867386 C-64.48929601 48.12186249 -64.49172374 46.18504115 -64.49872971 44.24824142 C-64.50638124 41.53941674 -64.49468933 38.83132866 -64.47802734 36.12255859 C-64.48410004 35.3296492 -64.49017273 34.53673981 -64.49642944 33.71980286 C-64.42999337 27.86524236 -63.34524833 23.12003697 -59.58984375 18.42578125 C-56.65927108 16.22785175 -53.91555621 16.18736513 -50.40234375 16.23828125 C-49.18998047 16.25181641 -49.18998047 16.25181641 -47.953125 16.265625 C-47.03080078 16.28302734 -47.03080078 16.28302734 -46.08984375 16.30078125 C-46.21359375 14.90859375 -46.21359375 14.90859375 -46.33984375 13.48828125 C-46.08984375 10.30078125 -46.08984375 10.30078125 -44.515625 8.62109375 C-41.23856798 6.83744597 -38.73965019 6.93753468 -35.02734375 6.98828125 C-33.18462891 6.99408203 -33.18462891 6.99408203 -31.3046875 7 C-28.08984375 7.30078125 -28.08984375 7.30078125 -25.08984375 9.30078125 C-24.90234375 12.92578125 -24.90234375 12.92578125 -25.08984375 16.30078125 C-22.77984375 16.30078125 -20.46984375 16.30078125 -18.08984375 16.30078125 C-17.90808594 15.70910156 -17.72632813 15.11742187 -17.5390625 14.5078125 C-14.10229879 3.70403736 -14.10229879 3.70403736 -10.49780273 1.19067383 C-7.03461596 -0.08919191 -3.64429726 -0.00442195 0 0 Z M-42.08984375 13.30078125 C-42.08984375 14.29078125 -42.08984375 15.28078125 -42.08984375 16.30078125 C-40.48663401 16.49629463 -38.88221389 16.68190108 -37.27734375 16.86328125 C-36.38402344 16.96769531 -35.49070312 17.07210938 -34.5703125 17.1796875 C-31.95608803 17.45736834 -31.95608803 17.45736834 -29.08984375 16.30078125 C-29.08984375 14.98078125 -29.08984375 13.66078125 -29.08984375 12.30078125 C-33.44755763 10.84820996 -38.61996936 9.83090686 -42.08984375 13.30078125 Z " fill="#272624" transform="translate(67.08984375,12.69921875)"/>
<path d="M0 0 C3.29362705 2.04925027 6.13363156 4.39470497 9 7 C9.94166016 7.78697266 9.94166016 7.78697266 10.90234375 8.58984375 C17.69182557 14.66620713 21.84362919 21.9390719 22.51171875 31.09375 C22.83973497 40.18830345 22.86291574 49.01211778 18 57 C17.0409375 58.6396875 17.0409375 58.6396875 16.0625 60.3125 C9.36481594 69.03978529 0.86202735 75.63058717 -10 78 C-23.29177691 79.31309893 -33.92269012 76.98584918 -44.77734375 68.91796875 C-51.65928679 62.97942036 -57.33325676 53.99963432 -58.20874023 44.80859375 C-58.76668516 31.55978904 -58.53152655 21.82456988 -49.69140625 11.234375 C-36.81834057 -2.50225047 -17.85721086 -7.92098852 0 0 Z " fill="#415762" transform="translate(95,48)"/>
<path d="M0 0 C8.91 0 17.82 0 27 0 C26.67 1.98 26.34 3.96 26 6 C25.18588014 20.19976508 28.52162027 32.16427948 38 43 C44.53149084 50.13307552 53.30745209 54.82485828 62.97265625 55.48046875 C64.73127928 55.5302365 66.4906797 55.55761436 68.25 55.5625 C69.49076294 55.56612549 69.49076294 55.56612549 70.7565918 55.56982422 C81.47274353 55.28109445 91.3917407 51.21249574 99.26953125 43.890625 C103.50984741 39.3277616 106.60983893 34.74144512 109 29 C109.391875 28.13375 109.78375 27.2675 110.1875 26.375 C113.08477716 17.906036 112.44847587 8.69085519 111 0 C119.91 0 128.82 0 138 0 C138.10488373 7.87793356 138.20504309 15.75333682 138.25875092 23.63136292 C138.28514595 27.29995616 138.3204099 30.96797108 138.37719727 34.63623047 C138.43155986 38.17000804 138.46142876 41.70322514 138.47438622 45.23738861 C138.48810967 47.24058028 138.52713702 49.24354668 138.56648254 51.24639893 C138.5668602 52.46736267 138.56723785 53.68832642 138.56762695 54.94628906 C138.57873001 56.02106506 138.58983307 57.09584106 138.60127258 58.20318604 C138 61 138 61 136.22941589 63.34501648 C131.19575663 65.92462326 126.33969998 65.56453119 120.76171875 65.53344727 C119.52056305 65.54206284 118.27940735 65.55067841 117.00064087 65.55955505 C113.60368214 65.57835117 110.20769989 65.57911602 106.81076431 65.57023358 C103.97270779 65.56511779 101.13473848 65.57242091 98.29669094 65.57970566 C91.60103648 65.5966963 84.90560998 65.59314689 78.20996094 65.57641602 C71.30636594 65.55948847 64.40340296 65.57533911 57.49987698 65.6076389 C51.56764013 65.63434093 45.63559996 65.64160943 39.70330906 65.63312382 C36.16236401 65.6281971 32.62179934 65.63039589 29.0809021 65.65091133 C25.13311025 65.67269034 21.18607971 65.65386271 17.23828125 65.63110352 C16.06721832 65.64279572 14.8961554 65.65448792 13.68960571 65.66653442 C5.85904563 65.57450196 5.85904563 65.57450196 1.77058411 62.840271 C-0.28251911 59.54679881 -0.60825019 57.78376826 -0.56762695 53.92456055 C-0.5672493 52.72369308 -0.56687164 51.52282562 -0.56648254 50.28556824 C-0.54067612 48.99894791 -0.51486969 47.71232758 -0.48828125 46.38671875 C-0.47894787 45.04866357 -0.47183423 43.71059123 -0.46684265 42.37251282 C-0.44781319 38.86217514 -0.39875053 35.35288302 -0.34332275 31.84295654 C-0.29204087 28.25677895 -0.26903519 24.67042624 -0.24414062 21.08398438 C-0.19328016 14.05506823 -0.09541653 7.02901762 0 0 Z " fill="#435864" transform="translate(8,73)"/>
<path d="M0 0 C1.08369873 -0.0112793 2.16739746 -0.02255859 3.28393555 -0.03417969 C4.46794449 -0.02608276 5.65195343 -0.01798584 6.87184143 -0.00964355 C8.12260468 -0.01665283 9.37336792 -0.02366211 10.66203308 -0.03088379 C14.09004838 -0.04547528 17.51709828 -0.04205165 20.94505954 -0.02936745 C24.53419712 -0.0192353 28.12329365 -0.02863391 31.71243286 -0.03491211 C37.74074197 -0.04218887 43.76885506 -0.03260121 49.7971344 -0.0135498 C56.76255088 0.00820934 63.72749885 0.00117501 70.69290394 -0.02085543 C76.67606881 -0.03902055 82.6590928 -0.04156208 88.64227635 -0.03110075 C92.21447078 -0.02487058 95.78644519 -0.02401662 99.35862541 -0.0372467 C103.34238191 -0.05097041 107.32561587 -0.03193712 111.30934143 -0.00964355 C112.49132614 -0.01774048 113.67331085 -0.0258374 114.89111328 -0.03417969 C122.83821543 0.04832026 122.83821543 0.04832026 126.89143372 2.32830811 C129.469823 5.51446886 129.22399273 7.84525139 129.14356995 11.89855957 C129.13295784 12.95548004 129.13295784 12.95548004 129.12213135 14.03375244 C129.09422226 16.27624348 129.03150157 18.51620328 128.9677887 20.75793457 C128.94270081 22.28133591 128.91988848 23.80477654 128.89942932 25.32824707 C128.84866253 29.05656022 128.75083699 32.77942789 128.6552887 36.50793457 C119.0852887 36.50793457 109.5152887 36.50793457 99.6552887 36.50793457 C98.3352887 33.86793457 97.0152887 31.22793457 95.6552887 28.50793457 C89.19805999 19.31679855 80.01362177 12.99495808 68.90138245 10.75402832 C55.17430026 9.25001758 42.81219465 10.99686203 31.6552887 19.50793457 C26.00158353 24.78082022 23.19712736 29.42425725 19.6552887 36.50793457 C10.0852887 36.50793457 0.5152887 36.50793457 -9.3447113 36.50793457 C-9.43666053 32.02285554 -9.51625059 27.54105761 -9.56443787 23.05578613 C-9.58452729 21.53093372 -9.61180446 20.00615809 -9.64646912 18.48156738 C-9.69510926 16.28703859 -9.71770526 14.09352988 -9.7353363 11.89855957 C-9.75628357 10.57888184 -9.77723083 9.2592041 -9.79881287 7.89953613 C-8.99638152 1.90632307 -5.80268863 0.00929865 0 0 Z " fill="#F29538" transform="translate(17.344711303710938,32.4920654296875)"/>
<path d="M0 0 C3.29362705 2.04925027 6.13363156 4.39470497 9 7 C9.94166016 7.78697266 9.94166016 7.78697266 10.90234375 8.58984375 C17.69182557 14.66620713 21.84362919 21.9390719 22.51171875 31.09375 C22.83973497 40.18830345 22.86291574 49.01211778 18 57 C17.0409375 58.6396875 17.0409375 58.6396875 16.0625 60.3125 C9.36481594 69.03978529 0.86202735 75.63058717 -10 78 C-23.29177691 79.31309893 -33.92269012 76.98584918 -44.77734375 68.91796875 C-51.65928679 62.97942036 -57.33325676 53.99963432 -58.20874023 44.80859375 C-58.76668516 31.55978904 -58.53152655 21.82456988 -49.69140625 11.234375 C-36.81834057 -2.50225047 -17.85721086 -7.92098852 0 0 Z M-43.08984375 16.68359375 C-49.11756016 23.99327848 -50.51485375 31.00197704 -50.38671875 40.31640625 C-49.55465653 48.24200899 -46.27689248 55.07455091 -41 61 C-33.11360881 67.32660587 -25.61667372 70.65695902 -15.42578125 70.421875 C-6.95768198 69.3790532 1.24094805 65.60787013 6.6953125 58.921875 C13.0556216 49.2597661 15.18973939 41.77571599 14 30 C11.76427011 21.07038837 5.23665113 14.31041384 -2.03125 9.0078125 C-16.59549723 1.55230499 -32.31804265 5.44260349 -43.08984375 16.68359375 Z " fill="#BCC2DD" transform="translate(95,48)"/>
<path d="M0 0 C8.91 0 17.82 0 27 0 C26.67 1.98 26.34 3.96 26 6 C25.67 6 25.34 6 25 6 C24.97471181 13.79621694 24.95715932 21.59242336 24.94506836 29.38867188 C24.94002958 32.04264725 24.93319849 34.69661984 24.92456055 37.35058594 C24.91247511 41.15821011 24.90676725 44.96579769 24.90234375 48.7734375 C24.89718246 49.96617279 24.89202118 51.15890808 24.88670349 52.38778687 C24.88662796 53.48877716 24.88655243 54.58976746 24.88647461 55.72412109 C24.88314369 57.1830629 24.88314369 57.1830629 24.87974548 58.67147827 C24.84543196 61.02460388 24.84543196 61.02460388 26 63 C61.31 63.33 96.62 63.66 133 64 C133 64.33 133 64.66 133 65 C116.39728545 65.11681419 99.79470426 65.20497854 83.19167805 65.25906086 C75.48254469 65.28483999 67.77366671 65.31998455 60.06469727 65.37719727 C53.34535002 65.42704164 46.62618772 65.45929314 39.90666074 65.47044247 C36.34878373 65.47695966 32.7914358 65.49226953 29.23372841 65.52865028 C25.2615939 65.56893926 21.28997647 65.56994874 17.31762695 65.56762695 C16.1387088 65.58560333 14.95979065 65.60357971 13.74514771 65.62210083 C5.85832567 65.57208753 5.85832567 65.57208753 1.765625 62.84423828 C-0.27995022 59.54902931 -0.60822645 57.7815127 -0.56762695 53.92456055 C-0.5672493 52.72369308 -0.56687164 51.52282562 -0.56648254 50.28556824 C-0.54067612 48.99894791 -0.51486969 47.71232758 -0.48828125 46.38671875 C-0.47894787 45.04866357 -0.47183423 43.71059123 -0.46684265 42.37251282 C-0.44781319 38.86217514 -0.39875053 35.35288302 -0.34332275 31.84295654 C-0.29204087 28.25677895 -0.26903519 24.67042624 -0.24414062 21.08398438 C-0.19328016 14.05506823 -0.09541653 7.02901762 0 0 Z " fill="#3A4E58" transform="translate(8,73)"/>
<path d="M0 0 C1.09092453 -0.00549866 2.18184906 -0.01099731 3.30583191 -0.0166626 C4.49769608 -0.00228149 5.68956024 0.01209961 6.9175415 0.0269165 C8.17633621 0.0263324 9.43513092 0.02574829 10.73207092 0.02514648 C14.18029994 0.02399907 17.62797211 0.04751194 21.07607174 0.07544231 C24.6808534 0.10045185 28.2856479 0.1027976 31.89050293 0.10754395 C38.71514971 0.1199751 45.5395401 0.15279839 52.36407399 0.1929419 C60.1342366 0.23765543 67.90441146 0.25964556 75.6746707 0.27972364 C91.65714329 0.32153108 107.63936011 0.39188559 123.62164307 0.48101807 C123.62164307 0.81101807 123.62164307 1.14101807 123.62164307 1.48101807 C88.31164307 1.81101807 53.00164307 2.14101807 16.62164307 2.48101807 C15.46115811 4.80198797 15.51964458 6.08596379 15.55914307 8.66461182 C15.56752197 9.50540283 15.57590088 10.34619385 15.58453369 11.21246338 C15.59677979 12.10546143 15.60902588 12.99845947 15.62164307 13.91851807 C15.6785968 21.16458613 15.54636912 28.28136525 14.62164307 35.48101807 C16.27164307 35.48101807 17.92164307 35.48101807 19.62164307 35.48101807 C19.62164307 35.81101807 19.62164307 36.14101807 19.62164307 36.48101807 C10.05164307 36.48101807 0.48164307 36.48101807 -9.37835693 36.48101807 C-9.47030616 31.99593904 -9.54989622 27.51414111 -9.5980835 23.02886963 C-9.61817292 21.50401721 -9.64545009 19.97924159 -9.68011475 18.45465088 C-9.72875489 16.26012208 -9.75135089 14.06661338 -9.76898193 11.87164307 C-9.7899292 10.55196533 -9.81087646 9.2322876 -9.8324585 7.87261963 C-9.02661983 1.85395792 -5.82191564 -0.02265337 0 0 Z " fill="#E38024" transform="translate(17.37835693359375,32.51898193359375)"/>
<path d="M0 0 C0.74765625 -0.02835938 1.4953125 -0.05671875 2.265625 -0.0859375 C8.29505857 -0.01240782 11.67046118 3.71227848 15.73828125 7.66796875 C16.48464844 8.43753906 17.23101562 9.20710938 18 10 C18.52980469 10.53238281 19.05960938 11.06476562 19.60546875 11.61328125 C25.9373931 18.52969092 27.68876877 26.32940692 27.5 35.4375 C27.48936523 36.36183838 27.47873047 37.28617676 27.46777344 38.23852539 C27.28421801 44.8087643 26.46950016 50.3009585 23 56 C22.0409375 57.6396875 22.0409375 57.6396875 21.0625 59.3125 C18.88424226 62.15083584 16.62194287 64.56533876 14 67 C13.21625 67.886875 12.4325 68.77375 11.625 69.6875 C6.10691992 74.20489198 -3.15179409 74.2917594 -9.98828125 73.7734375 C-14.7383513 72.92289385 -18.79922397 71.43202823 -23 69 C-19.68120429 67.89373476 -17.53825401 68.06462645 -14.0625 68.25 C-6.71092471 68.32409202 1.26163074 66.64448328 6.7109375 61.33203125 C7.13632813 60.89246094 7.56171875 60.45289063 8 60 C8.66 60 9.32 60 10 60 C10.27714844 59.44441406 10.55429688 58.88882813 10.83984375 58.31640625 C11.64040517 56.7179789 12.44536798 55.12175099 13.25390625 53.52734375 C13.68574219 52.67269531 14.11757812 51.81804687 14.5625 50.9375 C14.99691406 50.08027344 15.43132812 49.22304687 15.87890625 48.33984375 C19.08481171 41.64877277 19.10930706 33.5174191 17.3515625 26.359375 C14.17960165 18.60569293 8.36152119 11.98749064 1 8 C-4.37288606 6.17549936 -9.32595591 5.60580901 -14.9375 5.375 C-15.71673828 5.33632813 -16.49597656 5.29765625 -17.29882812 5.2578125 C-19.19887379 5.16455873 -21.09940278 5.08124038 -23 5 C-16.95335966 -1.52965599 -8.23633604 -0.26634918 0 0 Z " fill="#D0D3E6" transform="translate(90,49)"/>
<path d="M0 0 C4.96491205 2.64295965 8.22433612 5.95035212 10 11.27734375 C10.56067042 16.93795858 10.38706461 21.51428414 7 26.27734375 C3.10265802 30.34291632 -0.406961 32.66085794 -6.125 32.90234375 C-10.74340992 32.59114921 -13.47942637 31.38854836 -17 28.27734375 C-17.94875 27.47296875 -18.8975 26.66859375 -19.875 25.83984375 C-22.96878445 21.86645392 -22.80250027 17.33789812 -22.625 12.484375 C-21.63711707 7.41530073 -19.02137707 4.39145892 -15 1.27734375 C-10.35046765 -1.52346798 -5.11844937 -1.84943971 0 0 Z " fill="#3082C2" transform="translate(83,69.72265625)"/>
<path d="M0 0 C7.71144841 5.85243853 13.29004721 11.60020559 16 21 C17.22832211 31.67993752 15.42534197 40.86074485 9.09375 49.64453125 C3.40298583 56.04664094 -4.50946283 60.28478529 -12.96875 61.38671875 C-22.8908021 61.91825726 -30.47381496 58.86611639 -38 52.4375 C-38.66 51.633125 -39.32 50.82875 -40 50 C-40.680625 49.278125 -41.36125 48.55625 -42.0625 47.8125 C-47.85141203 39.4092406 -49.14836236 31.09848546 -48 21 C-45.83280497 12.42098535 -39.30776158 4.81242836 -32 0 C-22.81852771 -4.76076341 -9.12459438 -5.33386216 0 0 Z M-38.4375 9.3125 C-44.03409834 16.72596505 -46.08631384 23.73280419 -45 33 C-43.26852567 41.85770752 -38.69260712 48.41194535 -31.25 53.4375 C-23.95865947 57.98838771 -16.43453991 57.88346754 -8 57 C0.44097398 54.72497679 5.72540291 49.12080911 10.31640625 41.94140625 C13.99215008 34.96133521 14.30345548 27.03642858 12.33984375 19.44921875 C9.04813554 11.19857349 3.14700103 4.49429696 -5 0.85546875 C-17.41719557 -2.68537217 -29.44538173 -0.23744199 -38.4375 9.3125 Z " fill="#090A0C" transform="translate(93,57)"/>
<path d="M0 0 C1.14384155 0.00910904 1.14384155 0.00910904 2.31079102 0.0184021 C3.49233765 0.01409683 3.49233765 0.01409683 4.69775391 0.00970459 C6.36206787 0.00766438 8.02640582 0.01319128 9.69067383 0.02572632 C12.23907048 0.04178151 14.78588122 0.02587716 17.33422852 0.00668335 C18.95141952 0.00866579 20.56860953 0.01250949 22.18579102 0.0184021 C22.94835205 0.01232941 23.71091309 0.00625671 24.49658203 0 C28.96213148 0.05940654 29.94223072 0.1107793 33.24829102 3.4168396 C34.23829102 6.3868396 35.22829102 9.3568396 36.24829102 12.4168396 C20.40829102 12.4168396 4.56829102 12.4168396 -11.75170898 12.4168396 C-7.6466711 0.10172595 -7.6466711 0.10172595 0 0 Z " fill="#DD7E25" transform="translate(64.751708984375,17.583160400390625)"/>
<path d="M0 0 C5.66625089 3.36580959 9.25106905 7.72770312 11.41015625 13.95703125 C12.70699784 20.16257902 11.11550214 24.70898606 7.8359375 30.01171875 C4.84763586 34.08890839 1.27737293 36.6591068 -3.58984375 37.95703125 C-10.45503994 38.74094639 -15.89295212 38.01490998 -21.58984375 33.95703125 C-25.83583896 29.59627941 -28.70506639 24.79028079 -29.08984375 18.64453125 C-28.82147263 12.2680335 -26.16105823 7.50725623 -21.67578125 3.05859375 C-15.14742561 -1.99791443 -7.72960524 -3.11282745 0 0 Z M-19.58984375 5.95703125 C-20.53859375 6.76140625 -21.48734375 7.56578125 -22.46484375 8.39453125 C-25.5586282 12.36792108 -25.39234402 16.89647688 -25.21484375 21.75 C-24.22696082 26.81907427 -21.61122082 29.84291608 -17.58984375 32.95703125 C-13.11320752 35.67369961 -8.68602394 35.82804256 -3.58984375 34.95703125 C0.74813908 32.84272029 3.6309508 30.05278891 6.41015625 26.14453125 C8.10912559 20.72906649 8.14480637 16.07935383 6.28515625 10.70703125 C3.43536155 6.52733235 0.30422654 3.58838801 -4.58984375 1.95703125 C-10.77641243 1.23821089 -14.72266929 1.7535624 -19.58984375 5.95703125 Z " fill="#080E13" transform="translate(85.58984375,67.04296875)"/>
<path d="M0 0 C7.76785714 -0.66964286 7.76785714 -0.66964286 11.375 2.1875 C15.70811609 6.83012438 16.42085338 10.59414201 16.24609375 16.79296875 C15.7045529 21.64964458 13.54025947 24.40948384 10.3125 27.9375 C6.58781832 30.25664142 5.11620285 30.49545163 0.95703125 29.64453125 C-3.37872937 28.21658614 -6.20859154 26.04670151 -8.9375 22.4375 C-10 20 -10 20 -9 17 C-7.515 17.99 -7.515 17.99 -6 19 C-0.12495179 19.45331302 -0.12495179 19.45331302 5 17 C6.69631062 14.09203894 7.01262879 12.30940538 6.875 8.9375 C5.86938728 5.56151444 4.65533583 4.25301222 2 2 C1.34 1.34 0.68 0.68 0 0 Z " fill="#468DCA" transform="translate(77,71)"/>
<path d="M0 0 C0 0.66 0 1.32 0 2 C-0.77923828 2.36351562 -0.77923828 2.36351562 -1.57421875 2.734375 C-9.35098941 6.47182485 -14.83288634 10.45838078 -18.09375 18.796875 C-20.11084118 25.92624901 -20.13824195 34.3979633 -17.03125 41.23046875 C-13.13423992 47.91738377 -8.11357829 51.96943812 -1 55 C2.35254676 55.85639285 2.35254676 55.85639285 5 56 C5 56.33 5 56.66 5 57 C-3.64636348 57.88764948 -9.17603379 56.43522923 -16 51 C-22.69546978 44.81304692 -25.99142704 37.08366745 -26.4375 28 C-26.35594503 20.38480486 -23.26633957 13.79930873 -18.32421875 8.05078125 C-13.40517963 3.5614513 -6.89732689 -0.86216586 0 0 Z " fill="#394D56" transform="translate(74,57)"/>
<path d="M0 0 C0.74572266 -0.00386719 1.49144531 -0.00773437 2.25976562 -0.01171875 C7.81086499 -0.00163501 7.81086499 -0.00163501 8.9375 1.125 C9.03623816 3.12299572 9.06721799 5.12457158 9.0625 7.125 C9.06636719 8.7646875 9.06636719 8.7646875 9.0703125 10.4375 C8.9375 13.125 8.9375 13.125 7.9375 14.125 C5.27927343 14.25158222 2.65862576 14.31020214 0 14.3125 C-0.74185547 14.32474609 -1.48371094 14.33699219 -2.24804688 14.34960938 C-4.18763629 14.35488478 -6.1267371 14.24688902 -8.0625 14.125 C-10.0625 12.125 -10.0625 12.125 -10.2578125 9.5234375 C-10.23460938 8.52570312 -10.21140625 7.52796875 -10.1875 6.5 C-10.16945313 5.49710938 -10.15140625 4.49421875 -10.1328125 3.4609375 C-10.10960938 2.69007812 -10.08640625 1.91921875 -10.0625 1.125 C-6.88856311 -0.46196844 -3.48075795 -0.0181447 0 0 Z " fill="#0E0C0C" transform="translate(127.0625,41.875)"/>
<path d="M0 0 C3.77068832 -0.086985 7.54111932 -0.14038579 11.3125 -0.1875 C12.38435547 -0.21263672 13.45621094 -0.23777344 14.56054688 -0.26367188 C15.58857422 -0.27333984 16.61660156 -0.28300781 17.67578125 -0.29296875 C19.0975769 -0.31653442 19.0975769 -0.31653442 20.5480957 -0.34057617 C23.44674052 0.06205347 24.25712742 0.70050499 26 3 C27.39640986 5.93981024 28 7.72236256 28 11 C17.11 11 6.22 11 -5 11 C-4.67 10.01 -4.34 9.02 -4 8 C1.94 8 7.88 8 14 8 C13.67 7.01 13.34 6.02 13 5 C8.05 4.67 3.1 4.34 -2 4 C-1.34 2.68 -0.68 1.36 0 0 Z " fill="#F69738" transform="translate(72,18)"/>
<path d="M0 0 C0.33 0 0.66 0 1 0 C1.07476562 0.71285156 1.14953125 1.42570312 1.2265625 2.16015625 C2.15632565 8.93284272 3.60786438 13.57535283 9 18 C13.47161512 20.71425198 17.91076194 20.8800938 23 20 C26.07744752 18.40527416 28.491413 16.37509235 31 14 C31.52980469 13.50113281 32.05960938 13.00226563 32.60546875 12.48828125 C33.765636 11.35411214 34.88803351 10.1814644 36 9 C35.62715382 14.21984652 33.89572281 17.56974017 30 21 C24.4877748 24.24248541 19.25021429 24.88031187 13 24 C6.79256193 22.01958237 3.23644087 18.75946512 -0.08984375 13.16796875 C-1.17874791 10.57422708 -1.23305284 8.61606997 -1.1875 5.8125 C-1.18105469 4.93207031 -1.17460938 4.05164063 -1.16796875 3.14453125 C-1 1 -1 1 0 0 Z " fill="#04070A" transform="translate(59,81)"/>
<path d="M0 0 C2 1.0625 2 1.0625 3 3 C3.38991688 7.36706908 3.46324069 9.30513897 1 13 C-5.88888889 14.66666667 -5.88888889 14.66666667 -9.5 12.5 C-11.53291213 9.11181312 -11.49442439 6.88476306 -11 3 C-8.82986072 -1.20464485 -4.15736573 -0.61494368 0 0 Z " fill="#100C09" transform="translate(30,45)"/>
<path d="M0 0 C2.29756777 1.82220892 2.90478417 3.27740318 3.28515625 6.1640625 C3.51476261 12.29355402 3.51476261 12.29355402 1.69921875 14.78515625 C0 16 0 16 -3.5625 15.875 C-7 15 -7 15 -9 12 C-9.66769706 4.98918083 -9.66769706 4.98918083 -7.3125 1.5 C-4.5366313 -0.30056348 -3.24185935 -0.66499679 0 0 Z " fill="#0D0F11" transform="translate(22,100)"/>
<path d="M0 0 C2.15174713 1.60623378 2.906388 2.49339389 3.3984375 5.15625 C3.39070313 5.9296875 3.38296875 6.703125 3.375 7.5 C3.38273437 8.2734375 3.39046875 9.046875 3.3984375 9.84375 C2.90631341 12.5070098 2.14931513 13.39053632 0 15 C-3 15.4375 -3 15.4375 -6 15 C-8.2288277 13.21693784 -8.87382488 11.8709588 -9.28125 9.05859375 C-9.41375481 6.06067237 -9.36447879 3.6479623 -7.875 1 C-5.10184376 -0.47901666 -3.08815875 -0.38601984 0 0 Z " fill="#101214" transform="translate(22,81)"/>
<path d="M0 0 C0.33 0 0.66 0 1 0 C1.13535156 0.83402344 1.27070312 1.66804688 1.41015625 2.52734375 C3.37945609 12.82194711 6.8517541 19.41313142 15.5 25.5 C21.93906604 29.1082692 28.77086129 28.9807223 36 29 C36 29.33 36 29.66 36 30 C32.04 30 28.08 30 24 30 C24 30.66 24 31.32 24 32 C27.96 32 31.92 32 36 32 C36 32.33 36 32.66 36 33 C26.1575979 33.85724147 19.31524937 32.41517783 11 27 C8 24.4375 8 24.4375 6 22 C5.319375 21.278125 4.63875 20.55625 3.9375 19.8125 C0.21545155 14.40952644 -2.33133808 8.62676164 -2 2 C-1.34 2 -0.68 2 0 2 C0 1.34 0 0.68 0 0 Z " fill="#131417" transform="translate(47,85)"/>
<path d="M0 0 C4.29 0 8.58 0 13 0 C13 2.64 13 5.28 13 8 C8.71 8 4.42 8 0 8 C0 5.36 0 2.72 0 0 Z " fill="#D5D8ED" transform="translate(120,45)"/>
<path d="M0 0 C0.99 0.33 1.98 0.66 3 1 C3 7.27 3 13.54 3 20 C2.01 20 1.02 20 0 20 C0 13.4 0 6.8 0 0 Z " fill="#040506" transform="translate(132,107)"/>
<path d="M0 0 C5.28 0 10.56 0 16 0 C16.33 0.99 16.66 1.98 17 3 C11.06 3 5.12 3 -1 3 C-0.67 2.01 -0.34 1.02 0 0 Z " fill="#040200" transform="translate(69,22)"/>
<path d="M0 0 C2.625 0.375 2.625 0.375 5 1 C5.625 2.8125 5.625 2.8125 6 5 C5.01 6.485 5.01 6.485 4 8 C2.35 7.67 0.7 7.34 -1 7 C-1.625 4.625 -1.625 4.625 -2 2 C-1.34 1.34 -0.68 0.68 0 0 Z " fill="#438AC7" transform="translate(24,48)"/>
<path d="M0 0 C1.65 0 3.3 0 5 0 C4.67 2.31 4.34 4.62 4 7 C6.97 7 9.94 7 13 7 C13 7.33 13 7.66 13 8 C8.71 8 4.42 8 0 8 C0 5.36 0 2.72 0 0 Z " fill="#AFB4CB" transform="translate(120,45)"/>
<path d="M0 0 C1.31534494 3.65857532 0.65468309 6.08026481 -0.4375 9.75 C-0.86869141 11.22726563 -0.86869141 11.22726563 -1.30859375 12.734375 C-1.53675781 13.48203125 -1.76492187 14.2296875 -2 15 C-2.66 15 -3.32 15 -4 15 C-4.51211281 8.59858988 -4.11888494 5.01989102 0 0 Z " fill="#09090A" transform="translate(49,72)"/>
<path d="M0 0 C0.99 0.33 1.98 0.66 3 1 C3 3.97 3 6.94 3 10 C1.68 9.67 0.36 9.34 -1 9 C-1.09765625 2.84765625 -1.09765625 2.84765625 -1 1 C-0.67 0.67 -0.34 0.34 0 0 Z " fill="#C4C7DD" transform="translate(18,103)"/>
<path d="M0 0 C1.32 0 2.64 0 4 0 C4 2.97 4 5.94 4 9 C2.68 9 1.36 9 0 9 C0 6.03 0 3.06 0 0 Z " fill="#C5C9DF" transform="translate(17,84)"/>
<path d="M0 0 C2 1 2 1 3 3 C2.01 3.495 2.01 3.495 1 4 C0.59270772 6.32156597 0.25561323 8.6568787 0 11 C-0.33 11 -0.66 11 -1 11 C-1.33 9.02 -1.66 7.04 -2 5 C-2.33 7.31 -2.66 9.62 -3 12 C-3.33 12 -3.66 12 -4 12 C-4.49230769 4.61538462 -4.49230769 4.61538462 -2 1.5 C-1.34 1.005 -0.68 0.51 0 0 Z " fill="#191D21" transform="translate(17,100)"/>
<path d="M0 0 C0.99 0 1.98 0 3 0 C3 2.31 3 4.62 3 7 C2.01 7.33 1.02 7.66 0 8 C0 5.36 0 2.72 0 0 Z " fill="#050607" transform="translate(132,95)"/>
<path d="M0 0 C0.66 0 1.32 0 2 0 C1.67 2.31 1.34 4.62 1 7 C1.99 7.33 2.98 7.66 4 8 C2.35 7.67 0.7 7.34 -1 7 C-1.625 4.625 -1.625 4.625 -2 2 C-1.34 1.34 -0.68 0.68 0 0 Z " fill="#2974AE" transform="translate(24,48)"/>
<path d="M0 0 C1.98 0.495 1.98 0.495 4 1 C3.67 2.32 3.34 3.64 3 5 C1.68 4.67 0.36 4.34 -1 4 C-0.67 2.68 -0.34 1.36 0 0 Z " fill="#E5EFF6" transform="translate(70,76)"/>
<path d="M0 0 C2.0625 0.4375 2.0625 0.4375 4 1 C2.38405168 3.04119788 0.7143618 5.04072937 -1 7 C-1.66 7 -2.32 7 -3 7 C-1.125 1.125 -1.125 1.125 0 0 Z " fill="#767676" transform="translate(55,15)"/>
</svg>
