<?xml version="1.0" encoding="UTF-8"?>
<svg version="1.1" xmlns="http://www.w3.org/2000/svg" width="500" height="500">
<path d="M0 0 C165 0 330 0 500 0 C500 165 500 330 500 500 C335 500 170 500 0 500 C0 335 0 170 0 0 Z " fill="#FDF3C7" transform="translate(0,0)"/>
<path d="M0 0 C0.84061981 0.00141495 1.68123962 0.0028299 2.54733276 0.00428772 C5.23732025 0.00989388 7.92722509 0.02244739 10.6171875 0.03515625 C12.43880088 0.04017046 14.26041557 0.0447335 16.08203125 0.04882812 C20.55211527 0.05986531 25.02213736 0.07713405 29.4921875 0.09765625 C29.4921875 0.75765625 29.4921875 1.41765625 29.4921875 2.09765625 C30.0903125 2.20078125 30.6884375 2.30390625 31.3046875 2.41015625 C33.88909594 3.2223989 34.73901908 4.05229309 36.4921875 6.09765625 C37.66015625 8.359375 37.66015625 8.359375 38.6796875 10.78515625 C39.02386719 11.59339844 39.36804688 12.40164062 39.72265625 13.234375 C39.97660156 13.84925781 40.23054688 14.46414062 40.4921875 15.09765625 C42.12631592 15.10381958 42.12631592 15.10381958 43.79345703 15.11010742 C47.85301388 15.13195432 51.91160912 15.18630055 55.97070312 15.25024414 C57.72418978 15.27337593 59.47781442 15.28780854 61.23144531 15.29321289 C63.75933334 15.30253824 66.28506567 15.3436026 68.8125 15.390625 C69.59086212 15.38669235 70.36922424 15.3827597 71.1711731 15.37870789 C76.91903064 15.53121834 79.4687891 16.97720047 83.4921875 21.09765625 C85.21594424 24.54516973 84.66727228 28.52164482 84.68505859 32.31738281 C84.69732483 33.75176949 84.69732483 33.75176949 84.70983887 35.21513367 C84.73471401 38.38950977 84.7512147 41.56384109 84.765625 44.73828125 C84.77094868 45.82118187 84.77627235 46.90408249 84.78175735 48.01979828 C84.80849867 53.75196119 84.82787009 59.48410225 84.84228516 65.21630859 C84.8589316 71.13929502 84.90370703 77.06172489 84.9546566 82.98450089 C84.98830289 87.53642419 84.99985979 92.08821502 85.00551224 96.64025116 C85.01223236 98.82354738 85.02747404 101.00683465 85.05140305 103.19001007 C85.08299919 106.24725249 85.0830993 109.30298894 85.07568359 112.36035156 C85.09208893 113.26136093 85.10849426 114.1623703 85.12539673 115.09068298 C85.082501 119.41383003 84.82189112 122.25358393 82.08071899 125.70623779 C79.4921875 128.09765625 79.4921875 128.09765625 77.4921875 128.09765625 C77.4921875 128.75765625 77.4921875 129.41765625 77.4921875 130.09765625 C60.38518808 130.19113581 43.27826847 130.26165311 26.17107201 130.30490494 C18.22773063 130.32552214 10.28454805 130.35362648 2.34130859 130.39941406 C-4.58277251 130.4393078 -11.50673861 130.46509519 -18.43093145 130.47401023 C-22.09662259 130.47922075 -25.76198474 130.49144931 -29.42757034 130.52057648 C-33.52168566 130.55284431 -37.61523057 130.55361405 -41.70947266 130.55175781 C-42.92219849 130.56613892 -44.13492432 130.58052002 -45.38439941 130.59533691 C-55.9845791 130.54324477 -55.9845791 130.54324477 -60.5078125 126.09765625 C-63.91846868 121.16523829 -63.94260729 116.67880619 -63.91186523 110.89868164 C-63.91872849 109.9922139 -63.92559174 109.08574615 -63.93266296 108.15180969 C-63.95091017 105.16614966 -63.94709639 102.18101614 -63.94140625 99.1953125 C-63.94596904 97.11315236 -63.9512749 95.03099373 -63.95729065 92.94883728 C-63.96621768 88.58863195 -63.96380319 84.22860982 -63.95385742 79.8684082 C-63.94236834 74.28867918 -63.96258069 68.70958307 -63.99177456 63.12993717 C-64.01014546 58.83100893 -64.00984229 54.53223211 -64.00413704 50.23327446 C-64.00398393 48.17643788 -64.01001929 46.11959097 -64.02242851 44.06279182 C-64.03735329 41.18346904 -64.02665031 38.30531239 -64.00952148 35.42602539 C-64.01918945 34.58164917 -64.02885742 33.73727295 -64.03881836 32.86730957 C-63.96780452 27.14900501 -62.78301453 23.81162252 -59.5078125 19.09765625 C-56.50803271 16.86611275 -53.93142093 16.87598234 -50.2578125 16.97265625 C-49.36578125 16.99070313 -48.47375 17.00875 -47.5546875 17.02734375 C-46.87921875 17.05054688 -46.20375 17.07375 -45.5078125 17.09765625 C-45.5696875 16.00453125 -45.6315625 14.91140625 -45.6953125 13.78515625 C-45.5078125 10.09765625 -45.5078125 10.09765625 -44.5078125 8.37890625 C-41.32898021 6.34246681 -37.96391827 6.7860509 -34.3203125 6.91015625 C-33.57072266 6.92369141 -32.82113281 6.93722656 -32.04882812 6.95117188 C-30.20151483 6.98647086 -28.35457184 7.04027708 -26.5078125 7.09765625 C-26.5078125 7.75765625 -26.5078125 8.41765625 -26.5078125 9.09765625 C-25.8478125 9.09765625 -25.1878125 9.09765625 -24.5078125 9.09765625 C-24.5078125 11.73765625 -24.5078125 14.37765625 -24.5078125 17.09765625 C-22.1978125 16.76765625 -19.8878125 16.43765625 -17.5078125 16.09765625 C-17.33765625 15.43378906 -17.1675 14.76992187 -16.9921875 14.0859375 C-15.58397829 8.95496247 -14.36843678 4.95828053 -10.5078125 1.09765625 C-7.22889325 -0.54180338 -3.60167716 -0.02264553 0 0 Z " fill="#3D372F" transform="translate(116.5078125,187.90234375)"/>
<path d="M0 0 C-1.21562622 1.24354248 -1.21562622 1.24354248 -2.45581055 2.51220703 C-5.38933506 6.04888793 -5.73260099 9.31272951 -5.70703125 13.8046875 C-5.72215256 14.5286673 -5.73727386 15.25264709 -5.75285339 15.99856567 C-5.79554044 18.29103195 -5.80454885 20.58217686 -5.8125 22.875 C-5.83565946 24.43753466 -5.86102782 26.00003824 -5.88867188 27.5625 C-5.95546375 31.37570885 -5.97660995 35.18529582 -6 39 C4.23 39 14.46 39 25 39 C24.67 40.65 24.34 42.3 24 44 C23.73845234 47.74752707 23.72329168 51.49425947 23.6875 55.25 C23.65849609 56.24902344 23.62949219 57.24804688 23.59960938 58.27734375 C23.51574207 68.14788035 26.72751797 76.63336651 33.75 83.78125 C38.10158146 87.79286416 42.50268038 90.79480145 48 93 C48.87914062 93.35707031 49.75828125 93.71414063 50.6640625 94.08203125 C59.97007258 96.64281857 72.25149898 96.53607763 80.94140625 92.18359375 C81.62074219 91.79300781 82.30007812 91.40242188 83 91 C83.68964844 90.66097656 84.37929687 90.32195312 85.08984375 89.97265625 C93.84544594 85.2503449 100.0277415 76.37141962 103 67 C103.56686676 63.14219439 103.69328585 59.33273111 103.75 55.4375 C103.79447266 53.92446289 103.79447266 53.92446289 103.83984375 52.38085938 C103.90980668 49.9204963 103.96286189 47.46103989 104 45 C104.66 45 105.32 45 106 45 C106 44.34 106 43.68 106 43 C114.91 43 123.82 43 133 43 C133.10488018 51.00818447 133.20504043 59.01388027 133.25875092 67.02215576 C133.28514709 70.7513977 133.32041334 74.48007081 133.37719727 78.20898438 C133.43155547 81.80111569 133.4614279 85.39269572 133.47438622 88.9852066 C133.48361959 90.35520355 133.50165106 91.72517056 133.52865028 93.09493256 C133.56497896 95.01448599 133.56704269 96.93459511 133.56762695 98.85449219 C133.57873001 99.94703308 133.58983307 101.03957397 133.60127258 102.16522217 C132.80395293 105.9242894 131.06084835 106.83785834 128 109 C128 109.66 128 110.32 128 111 C110.8757298 111.09344628 93.75153918 111.16398054 76.62707233 111.20724869 C68.67585539 111.22787295 60.72479689 111.25599079 52.77368164 111.30175781 C45.8433842 111.34162994 38.91320151 111.36743381 31.98279256 111.37635398 C28.31322125 111.38156816 24.64397819 111.39382004 20.9745121 111.42292023 C16.87779817 111.45514505 12.78165471 111.45595918 8.68481445 111.45410156 C6.86033279 111.47567322 6.86033279 111.47567322 4.99899292 111.49768066 C-3.15527015 111.45755912 -3.15527015 111.45755912 -7.1678009 109.28411865 C-11.34238719 104.07985323 -11.29736953 99.3311499 -11.29052734 92.91455078 C-11.29724457 92.00822906 -11.30396179 91.10190735 -11.31088257 90.16812134 C-11.32985372 87.17712903 -11.33378627 84.1863612 -11.3359375 81.1953125 C-11.34236582 79.11172392 -11.34909421 77.02813625 -11.35610962 74.94454956 C-11.36808002 70.57840889 -11.37179066 66.21234733 -11.37060547 61.84619141 C-11.37040225 56.25861567 -11.39770906 50.67154835 -11.43214989 45.08409309 C-11.45441487 40.78089072 -11.45844313 36.47781081 -11.45738602 32.17455673 C-11.45974239 30.11492027 -11.46856796 28.05528045 -11.48405075 25.99570084 C-11.50370312 23.11152027 -11.49787556 20.22843749 -11.48583984 17.34423828 C-11.49707886 16.49829102 -11.50831787 15.65234375 -11.51989746 14.78076172 C-11.45934341 9.05429664 -10.28841694 5.71625892 -7 1 C-4.03185794 -1.15864877 -3.56966337 -1.18988779 0 0 Z " fill="#3F535E" transform="translate(64,206)"/>
<path d="M0 0 C1.59824364 -0.01073296 1.59824364 -0.01073296 3.22877502 -0.02168274 C4.39767776 -0.02437164 5.56658051 -0.02706055 6.77090454 -0.02983093 C8.61756966 -0.03968773 8.61756966 -0.03968773 10.50154114 -0.04974365 C14.5843327 -0.06949006 18.667085 -0.08114218 22.74990845 -0.09111023 C24.15611414 -0.09515837 25.56231964 -0.0992753 26.96852493 -0.10346031 C33.57384326 -0.12250489 40.17915045 -0.13673874 46.78449094 -0.14507228 C54.40781002 -0.1548493 62.03083909 -0.18118365 69.65405595 -0.22157317 C75.5479912 -0.25172877 81.44184327 -0.26654052 87.33585417 -0.26985329 C90.85557849 -0.272204 94.37499272 -0.28116685 97.89463425 -0.30631447 C101.82093356 -0.33391554 105.74685063 -0.32976572 109.67324829 -0.32279968 C110.83810257 -0.33560974 112.00295685 -0.3484198 113.20310974 -0.36161804 C121.03598206 -0.31084012 121.03598206 -0.31084012 125.07713318 1.95883179 C127.60818299 5.08044465 127.48107714 7.91658865 127.3397522 11.75654602 C127.32914009 12.84676056 127.32914009 12.84676056 127.3183136 13.95899963 C127.29039825 16.27278559 127.22767478 18.584121 127.16397095 20.89717102 C127.13888394 22.46875056 127.11607146 24.04036818 127.09561157 25.61201477 C127.04058227 29.45800622 126.9543376 33.30217368 126.85147095 37.14717102 C122.83226671 37.3956476 118.81606273 37.57634838 114.79092407 37.69648743 C113.42457209 37.74657838 112.05875115 37.81468562 110.69424438 37.90156555 C106.25591769 38.17693619 102.17657357 38.24016201 97.85147095 37.14717102 C95.4986565 34.81635553 94.31336634 32.75233027 92.99502563 29.72773743 C89.12075309 20.98498319 80.27054988 16.62304789 71.85147095 13.14717102 C59.9679447 9.68107957 44.68055394 11.63418332 33.85147095 17.14717102 C26.63049658 21.33906866 22.98299131 27.03425624 18.85147095 34.14717102 C18.19147095 35.13717102 17.53147095 36.12717102 16.85147095 37.14717102 C13.96231079 37.48774719 13.96231079 37.48774719 10.31240845 37.44013977 C8.35947876 37.42563782 8.35947876 37.42563782 6.36709595 37.4108429 C4.98688172 37.3857749 3.60667339 37.36038004 2.22647095 37.33467102 C0.83846432 37.31962619 -0.54955773 37.30593743 -1.93759155 37.2936554 C-5.34162415 37.25819672 -8.74488527 37.208774 -12.14852905 37.14717102 C-12.24740936 32.50245892 -12.32000056 27.85835929 -12.36825562 23.21284485 C-12.38837092 21.63265817 -12.41566709 20.05254593 -12.45028687 18.47261047 C-12.49881248 16.20118354 -12.52149714 13.93074044 -12.53915405 11.65888977 C-12.55979919 10.95253891 -12.58044434 10.24618805 -12.60171509 9.51843262 C-12.6031881 6.29835951 -12.5963801 4.61210517 -10.31161499 2.2401886 C-6.7326907 0.43174119 -3.95474704 0.01822588 0 0 Z " fill="#ED9237" transform="translate(70.14852905273438,207.8528289794922)"/>
<path d="M0 0 C6.87309058 4.99751128 12.66221546 11.1183407 16 19 C17.42902306 30.17019688 15.84746086 39.59908792 9.61328125 49.1171875 C4.48745655 55.66139109 -2.01452314 59.06694059 -10 61 C-21.52001713 62.32092809 -29.82530683 60.3116513 -39.12109375 53.4296875 C-45.31195352 47.91782525 -48.77528771 40.87543434 -49.48046875 32.640625 C-49.95914744 22.61566569 -48.96527755 14.80760142 -42.25 6.953125 C-31.13238736 -4.64369508 -14.43157263 -8.42665456 0 0 Z " fill="#3C515B" transform="translate(144,233)"/>
<path d="M0 0 C7.76079793 5.6188177 14.03918399 11.59819538 17.953125 20.4140625 C18.448125 21.4040625 18.448125 21.4040625 18.953125 22.4140625 C19.25178705 26.42849241 19.23134713 30.45234038 19.265625 34.4765625 C19.30913086 36.13848633 19.30913086 36.13848633 19.35351562 37.83398438 C19.42810082 47.53579729 17.22393454 54.21512264 11.015625 61.7265625 C10.36722656 62.52707031 9.71882813 63.32757813 9.05078125 64.15234375 C5.44546637 68.03963857 1.63970054 70.77473569 -3.109375 73.1015625 C-3.94597656 73.51792969 -4.78257812 73.93429687 -5.64453125 74.36328125 C-14.36583034 78.17796329 -27.8468622 78.15429681 -36.671875 74.7890625 C-38.91796875 73.671875 -38.91796875 73.671875 -41.046875 72.4140625 C-42.20896484 71.76050781 -42.20896484 71.76050781 -43.39453125 71.09375 C-52.65676561 65.43435471 -58.63128493 57.6608327 -62.046875 47.4140625 C-62.33075391 43.71071532 -62.32456547 40.00207859 -62.359375 36.2890625 C-62.40288086 34.77699219 -62.40288086 34.77699219 -62.44726562 33.234375 C-62.53415535 22.91454978 -59.01687047 14.99729792 -52.046875 7.4140625 C-37.78883385 -6.07927402 -17.427313 -10.66812151 0 0 Z M-49.046875 16.4140625 C-55.08441598 23.92831804 -55.23841252 33.02649533 -54.37207031 42.27539062 C-53.06249301 50.88792604 -48.05288562 57.47644211 -41.37890625 62.7890625 C-32.29931358 69.11588084 -23.32530298 69.78159043 -12.3984375 67.9765625 C-3.1342674 65.3760937 3.11007985 59.11821879 7.76171875 50.94140625 C11.68413526 42.6207391 12.78580261 32.62381479 10.1484375 23.6875 C4.71816901 13.08911391 -4.08274551 7.06877233 -15.046875 3.4140625 C-29.92548258 2.32894666 -38.9590111 5.14225316 -49.046875 16.4140625 Z " fill="#B4B9D3" transform="translate(149.046875,225.5859375)"/>
<path d="M0 0 C2.09011293 2.17977754 3.60471377 4.07948048 5.25 6.5625 C5.9457312 7.56132202 5.9457312 7.56132202 6.65551758 8.58032227 C8.1264358 10.70564595 9.56529 12.85009933 11 15 C11.97757678 16.44550718 12.95543757 17.89082233 13.93359375 19.3359375 C16.31591781 22.87336546 18.66594256 26.43056292 21 30 C21.01458252 29.39003174 21.02916504 28.78006348 21.04418945 28.15161133 C21.11894775 25.37128936 21.21551482 22.59213176 21.3125 19.8125 C21.33505859 18.85279297 21.35761719 17.89308594 21.38085938 16.90429688 C21.63479789 10.23263949 22.46833932 6.46503803 27.375 1.6875 C30.31835941 -0.20465962 31.60225845 -0.15340974 35 0 C35.10161289 6.58352441 35.1715547 13.16684577 35.21972656 19.75097656 C35.23981316 21.98966021 35.2670878 24.22829158 35.30175781 26.46679688 C35.35040464 29.68893349 35.37299874 32.91037501 35.390625 36.1328125 C35.41127014 37.12991241 35.43191528 38.12701233 35.45318604 39.15432739 C35.45510288 45.1215288 34.92876549 48.43168931 31 53 C28.59560145 55.32683731 27.60948855 55.95844396 24.25 56.1875 C23.13625 56.0946875 23.13625 56.0946875 22 56 C21.81050781 55.030625 21.62101562 54.06125 21.42578125 53.0625 C19.93770566 47.86795343 16.5577286 44.12032051 13.1875 40 C11.95057378 38.45933537 10.71487722 36.91768263 9.48046875 35.375 C8.89056152 34.63894531 8.3006543 33.90289062 7.69287109 33.14453125 C1 24.66599365 1 24.66599365 1 22 C0.34 22 -0.32 22 -1 22 C-0.97905273 22.79172607 -0.95810547 23.58345215 -0.93652344 24.39916992 C-0.85324533 27.99515018 -0.80130109 31.59092736 -0.75 35.1875 C-0.69972656 37.05631836 -0.69972656 37.05631836 -0.6484375 38.96289062 C-0.63554687 40.16494141 -0.62265625 41.36699219 -0.609375 42.60546875 C-0.58842773 43.71043701 -0.56748047 44.81540527 -0.54589844 45.95385742 C-1.10513222 49.70523375 -2.37316264 51.31580943 -5 54 C-7.96466952 55.51848927 -9.65761787 56 -13 56 C-13.1015993 49.27405734 -13.17154911 42.54831332 -13.21972656 35.82177734 C-13.23981517 33.53459274 -13.26709128 31.24745932 -13.30175781 28.96044922 C-13.35039558 25.66881666 -13.37299679 22.37786443 -13.390625 19.0859375 C-13.41127014 18.06696381 -13.43191528 17.04799011 -13.45318604 15.99813843 C-13.45507192 10.00234753 -13.03873011 6.54106426 -9 2 C-5.46310717 -0.35792855 -4.16237914 -0.70926112 0 0 Z " fill="#AF4205" transform="translate(249,242)"/>
<path d="M0 0 C0.70487549 0.01208496 1.40975098 0.02416992 2.13598633 0.03662109 C8.67565876 0.28493451 13.9872814 1.46250438 18.80078125 6.03125 C23.70843858 11.67159984 23.60506456 16.49693411 23.46484375 23.71484375 C23.11740688 28.45662304 22.25339669 31.83795674 19.1875 35.5 C11.97637556 41.45701585 5.16704382 41.78760105 -3.8125 41.5 C-3.895 42.53125 -3.9775 43.5625 -4.0625 44.625 C-5.08678803 49.91715484 -6.9893503 53.13263772 -11.3125 56.375 C-13.8125 57.5 -13.8125 57.5 -17.8125 57.5 C-17.91411289 50.91647559 -17.9840547 44.33315423 -18.03222656 37.74902344 C-18.05231316 35.51033979 -18.0795878 33.27170842 -18.11425781 31.03320312 C-18.16290464 27.81106651 -18.18549874 24.58962499 -18.203125 21.3671875 C-18.22377014 20.37008759 -18.24441528 19.37298767 -18.26568604 18.34567261 C-18.26755293 12.53397333 -17.78736666 9.0652918 -13.8125 4.5 C-9.36837704 0.72846707 -5.70003423 -0.15597952 0 0 Z " fill="#AE4204" transform="translate(353.8125,240.5)"/>
<path d="M0 0 C0.33 7.26 0.66 14.52 1 22 C3.74636045 16.96482404 3.74636045 16.96482404 6.47338867 11.91918945 C9.12924557 7.12458269 11.93047379 2.53476311 17 0 C21.05142119 -0.25860135 22.54337669 -0.30441554 26 2 C24.72361863 5.39037635 23.25674434 8.4180524 21.36328125 11.50390625 C20.62174805 12.73850586 20.62174805 12.73850586 19.86523438 13.99804688 C18.82519548 15.71574633 17.7782401 17.4292759 16.72460938 19.13867188 C16.23412109 19.96044922 15.74363281 20.78222656 15.23828125 21.62890625 C14.5582605 22.7437439 14.5582605 22.7437439 13.86450195 23.88110352 C12.78504235 26.52686175 12.92593429 27.3709207 14 30 C15.08617456 31.9593392 16.23214074 33.88594763 17.4140625 35.7890625 C18.09210938 36.89507812 18.77015625 38.00109375 19.46875 39.140625 C20.55036509 40.8913414 21.63457153 42.64038434 22.72167969 44.38769531 C23.7717768 46.07978147 24.81183879 47.77808255 25.8515625 49.4765625 C26.47885254 50.48799316 27.10614258 51.49942383 27.75244141 52.54150391 C28.16413574 53.35280762 28.57583008 54.16411133 29 55 C28.505 55.99 28.505 55.99 28 57 C26.14453125 57.5546875 26.14453125 57.5546875 23.8125 57.875 C23.05582031 57.99617188 22.29914063 58.11734375 21.51953125 58.2421875 C17.72728124 57.87766114 15.92458072 56.42397682 13 54 C10.97373107 51.42263911 9.29385407 48.69339705 7.625 45.875 C7.17511719 45.14667969 6.72523438 44.41835938 6.26171875 43.66796875 C3 38.30447378 3 38.30447378 3 36 C2.01 36 1.02 36 0 36 C0.03480469 36.79664063 0.06960938 37.59328125 0.10546875 38.4140625 C0.38727339 49.4447013 0.38727339 49.4447013 -3 54 C-6.4746033 56.74310787 -8.67011108 57.1303311 -13 57 C-13.1269815 50.13171166 -13.21442746 43.26372702 -13.2746582 36.39453125 C-13.29977181 34.0588042 -13.33386928 31.72315549 -13.37719727 29.38769531 C-13.43798492 26.02649586 -13.46624212 22.66633715 -13.48828125 19.3046875 C-13.51408768 18.26384003 -13.5398941 17.22299255 -13.56648254 16.15060425 C-13.56960668 8.0389364 -13.56960668 8.0389364 -10.59838867 4.37939453 C-6.76612628 0.87011808 -5.2409451 0 0 0 Z " fill="#AE4003" transform="translate(303,240)"/>
<path d="M0 0 C4.80374795 2.10442828 6.46017186 4.97571638 8.8125 9.5625 C9.41707031 10.71878906 10.02164062 11.87507812 10.64453125 13.06640625 C12 16 12 16 12 18 C12.66 18 13.32 18 14 18 C14.309375 16.7934375 14.309375 16.7934375 14.625 15.5625 C16.78074244 9.97716733 20.24436914 3.80212091 25 0 C26.9375 -0.328125 26.9375 -0.328125 29 -0.25 C29.680625 -0.23453125 30.36125 -0.2190625 31.0625 -0.203125 C33 0 33 0 36 1 C34.65516391 4.5812873 33.04976295 7.79570396 31.109375 11.08984375 C30.29339844 12.51393555 30.29339844 12.51393555 29.4609375 13.96679688 C28.31808383 15.95113527 27.16172848 17.92775705 25.9921875 19.89648438 C22.82982348 25.1698479 22.82982348 25.1698479 22.2890625 31.08203125 C22.85367188 32.04496094 23.41828125 33.00789063 24 34 C24.4021875 34.72630615 24.804375 35.4526123 25.21875 36.20092773 C26.64304232 38.74599529 28.12506662 41.24884206 29.625 43.75 C30.64192045 45.45079945 31.65514151 47.15381808 32.6640625 48.859375 C33.33622803 49.98037598 33.33622803 49.98037598 34.02197266 51.12402344 C35 53 35 53 35 55 C31.39427296 56.20190901 28.7897565 56.32670315 25 56 C19.58539237 53.09460078 16.70670097 47.33899092 14 42 C14 41.34 14 40.68 14 40 C13.34 40 12.68 40 12 40 C11.773125 40.825 11.54625 41.65 11.3125 42.5 C9.55598144 47.18404949 7.43583008 52.42623324 3.1015625 55.2265625 C0.82327343 56.06504063 -0.83384761 56.20553841 -3.25 56.125 C-4.4875 56.08375 -5.725 56.0425 -7 56 C-8.02191302 53.36925425 -8.14379613 52.32980091 -6.99609375 49.69750977 C-6.48175781 48.87049561 -5.96742188 48.04348145 -5.4375 47.19140625 C-4.88835937 46.27939453 -4.33921875 45.36738281 -3.7734375 44.42773438 C-2.59289342 42.5204016 -1.41060594 40.61414678 -0.2265625 38.70898438 C0.32257813 37.79568359 0.87171875 36.88238281 1.4375 35.94140625 C1.95183594 35.11326416 2.46617187 34.28512207 2.99609375 33.43188477 C4.25276762 30.38769011 4.03430671 29.10262094 3 26 C2.08625712 24.1491287 1.0986609 22.33373132 0.05859375 20.55078125 C-0.52470703 19.53822266 -1.10800781 18.52566406 -1.70898438 17.48242188 C-2.32064453 16.43634766 -2.93230469 15.39027344 -3.5625 14.3125 C-4.77591663 12.22745635 -5.9857485 10.14032099 -7.19140625 8.05078125 C-7.72967041 7.12950439 -8.26793457 6.20822754 -8.82250977 5.2590332 C-10 3 -10 3 -10 1 C-6.85575698 -0.57212151 -3.42208708 -0.5179375 0 0 Z " fill="#AE4204" transform="translate(412,242)"/>
<path d="M0 0 C1.07272156 -0.00137466 2.14544312 -0.00274933 3.25067139 -0.00416565 C4.42742935 -0.00057037 5.60418732 0.0030249 6.81660461 0.00672913 C8.05574615 0.0065831 9.2948877 0.00643707 10.57157898 0.00628662 C13.97007704 0.00686437 17.36851453 0.01188353 20.76700187 0.01886058 C24.31843116 0.02510711 27.86986123 0.02569895 31.42129517 0.02688599 C38.14669524 0.02999546 44.87207909 0.0382037 51.59747201 0.04823548 C59.25398374 0.0594085 66.91049625 0.06491007 74.5670141 0.06993091 C90.31729391 0.08038661 106.06755752 0.09797865 121.81782532 0.12025452 C122.14782532 0.78025452 122.47782532 1.44025452 122.81782532 2.12025452 C86.84782532 2.12025452 50.87782532 2.12025452 13.81782532 2.12025452 C13.81782532 9.05025452 13.81782532 15.98025452 13.81782532 23.12025452 C12.69282532 31.90931702 12.69282532 31.90931702 11.81782532 36.12025452 C13.46782532 36.12025452 15.11782532 36.12025452 16.81782532 36.12025452 C16.81782532 36.45025452 16.81782532 36.78025452 16.81782532 37.12025452 C7.24782532 37.12025452 -2.32217468 37.12025452 -12.18217468 37.12025452 C-12.27401844 32.47449136 -12.35364169 27.83187619 -12.40190125 23.18592834 C-12.42201655 21.60574167 -12.44931272 20.02562942 -12.4839325 18.44569397 C-12.53245811 16.17426703 -12.55514277 13.90382393 -12.57279968 11.63197327 C-12.59344482 10.92562241 -12.61408997 10.21927155 -12.63536072 9.49151611 C-12.63683373 6.27144301 -12.63002573 4.58518867 -10.34526062 2.21327209 C-6.74573567 0.39441507 -3.97712201 -0.00392608 0 0 Z " fill="#DB7D25" transform="translate(70.18217468261719,207.87974548339844)"/>
<path d="M0 0 C1.27423828 0.03287109 1.27423828 0.03287109 2.57421875 0.06640625 C11.06681817 0.92797431 16.5813922 6.92604436 22 13 C23.99998207 15.89359108 25.60435425 18.77655423 27 22 C27.495 22.99 27.495 22.99 28 24 C28.29866205 28.01442991 28.27822213 32.03827788 28.3125 36.0625 C28.34150391 37.17044922 28.37050781 38.27839844 28.40039062 39.41992188 C28.47497582 49.12173479 26.27080954 55.80106014 20.0625 63.3125 C19.41410156 64.11300781 18.76570313 64.91351563 18.09765625 65.73828125 C13.36911331 70.83665436 8.11740851 74.99335435 0.9765625 75.3984375 C-0.47393066 75.41032543 -1.9247086 75.4019553 -3.375 75.375 C-4.50119751 75.36629883 -4.50119751 75.36629883 -5.65014648 75.35742188 C-10.99204168 75.23190797 -15.19318262 74.45454504 -20 72 C-20 71.67 -20 71.34 -20 71 C-14.06 70.67 -8.12 70.34 -2 70 C-2 69.34 -2 68.68 -2 68 C-0.80375 67.443125 0.3925 66.88625 1.625 66.3125 C11.43498469 61.28660996 15.52477843 54.4256647 19 44 C19.86660346 32.98175606 19.43226656 25.57776625 12.203125 16.82421875 C4.90029485 8.83492256 -3.57541865 6.00285979 -14.1875 5.4375 C-14.93708984 5.39431641 -15.68667969 5.35113281 -16.45898438 5.30664062 C-18.30578375 5.20077315 -20.15286834 5.0999024 -22 5 C-16.22363948 -1.25629552 -7.91861552 -0.41676924 0 0 Z " fill="#C7CADC" transform="translate(140,224)"/>
<path d="M0 0 C-1.21562622 1.24354248 -1.21562622 1.24354248 -2.45581055 2.51220703 C-5.38933506 6.04888793 -5.73260099 9.31272951 -5.70703125 13.8046875 C-5.72215256 14.5286673 -5.73727386 15.25264709 -5.75285339 15.99856567 C-5.79554044 18.29103195 -5.80454885 20.58217686 -5.8125 22.875 C-5.83565946 24.43753466 -5.86102782 26.00003824 -5.88867188 27.5625 C-5.95546375 31.37570885 -5.97660995 35.18529582 -6 39 C4.23 39 14.46 39 25 39 C24.34 42.3 23.68 45.6 23 49 C22.74310296 51.37023874 22.52686881 53.74572203 22.375 56.125 C22.30023438 57.24132812 22.22546875 58.35765625 22.1484375 59.5078125 C22.09945312 60.33023438 22.05046875 61.15265625 22 62 C21.01 61.505 21.01 61.505 20 61 C19.97292861 58.75006641 19.95357171 56.50003905 19.9375 54.25 C19.92589844 52.99703125 19.91429688 51.7440625 19.90234375 50.453125 C20 47 20 47 21 43 C12.09 43 3.18 43 -6 43 C-6.02097602 50.61662605 -6.041011 58.23314735 -6.05175018 65.84977722 C-6.05702826 69.39677162 -6.06408044 72.94374208 -6.07543945 76.49072266 C-6.08839423 80.56152578 -6.09323876 84.63230359 -6.09765625 88.703125 C-6.10281754 89.97303284 -6.10797882 91.24294067 -6.11329651 92.55133057 C-6.11337204 93.73225281 -6.11344757 94.91317505 -6.11352539 96.12988281 C-6.115746 97.16912903 -6.11796661 98.20837524 -6.12025452 99.27911377 C-6.02877965 102.75298037 -6.02877965 102.75298037 -5 106 C-1.42622503 107.76739981 1.50015619 108.25515303 5.46064758 108.2784729 C6.54453262 108.28963638 7.62841766 108.30079987 8.74514771 108.31230164 C9.92406586 108.31446182 11.10298401 108.31662201 12.31762695 108.31884766 C13.56681412 108.32889328 14.81600128 108.3389389 16.1030426 108.34928894 C19.5200291 108.37485357 22.93685009 108.39172527 26.35389352 108.40471697 C29.92804944 108.4203666 33.50212162 108.44715096 37.07621765 108.4727478 C43.84046934 108.5195032 50.60473685 108.55626294 57.36906737 108.58942068 C65.07162785 108.62766499 72.77410414 108.67706908 80.47659361 108.72740483 C96.31766819 108.83067649 112.15879001 108.91995234 128 109 C128 109.66 128 110.32 128 111 C110.8757298 111.09344628 93.75153918 111.16398054 76.62707233 111.20724869 C68.67585539 111.22787295 60.72479689 111.25599079 52.77368164 111.30175781 C45.8433842 111.34162994 38.91320151 111.36743381 31.98279256 111.37635398 C28.31322125 111.38156816 24.64397819 111.39382004 20.9745121 111.42292023 C16.87779817 111.45514505 12.78165471 111.45595918 8.68481445 111.45410156 C6.86033279 111.47567322 6.86033279 111.47567322 4.99899292 111.49768066 C-3.15527015 111.45755912 -3.15527015 111.45755912 -7.1678009 109.28411865 C-11.34238719 104.07985323 -11.29736953 99.3311499 -11.29052734 92.91455078 C-11.29724457 92.00822906 -11.30396179 91.10190735 -11.31088257 90.16812134 C-11.32985372 87.17712903 -11.33378627 84.1863612 -11.3359375 81.1953125 C-11.34236582 79.11172392 -11.34909421 77.02813625 -11.35610962 74.94454956 C-11.36808002 70.57840889 -11.37179066 66.21234733 -11.37060547 61.84619141 C-11.37040225 56.25861567 -11.39770906 50.67154835 -11.43214989 45.08409309 C-11.45441487 40.78089072 -11.45844313 36.47781081 -11.45738602 32.17455673 C-11.45974239 30.11492027 -11.46856796 28.05528045 -11.48405075 25.99570084 C-11.50370312 23.11152027 -11.49787556 20.22843749 -11.48583984 17.34423828 C-11.49707886 16.49829102 -11.50831787 15.65234375 -11.51989746 14.78076172 C-11.45934341 9.05429664 -10.28841694 5.71625892 -7 1 C-4.03185794 -1.15864877 -3.56966337 -1.18988779 0 0 Z " fill="#2C2A28" transform="translate(64,206)"/>
<path d="M0 0 C3.84901497 2.2356554 5.9180314 4.17251208 7.6875 8.375 C7.99897632 12.73047725 7.92026105 17.01719585 7.6875 21.375 C7.0275 21.375 6.3675 21.375 5.6875 21.375 C5.501875 21.931875 5.31625 22.48875 5.125 23.0625 C2.94587255 26.56805285 0.4143201 28.72150616 -3.3125 30.375 C-8.47115911 31.39399439 -13.14519074 31.63101544 -17.79296875 28.9375 C-22.03308147 25.35387103 -24.94793914 22.16484993 -25.68359375 16.53515625 C-25.86387674 8.12548501 -25.86387674 8.12548501 -23.0625 4.3125 C-22.155 3.673125 -21.2475 3.03375 -20.3125 2.375 C-19.61125 1.7975 -18.91 1.22 -18.1875 0.625 C-12.75998266 -2.9933449 -5.77470099 -2.60618528 0 0 Z " fill="#3081C0" transform="translate(136.3125,246.625)"/>
<path d="M0 0 C6.87309058 4.99751128 12.66221546 11.1183407 16 19 C17.42902306 30.17019688 15.84746086 39.59908792 9.61328125 49.1171875 C4.48745655 55.66139109 -2.01452314 59.06694059 -10 61 C-21.52001713 62.32092809 -29.82530683 60.3116513 -39.12109375 53.4296875 C-45.31195352 47.91782525 -48.77528771 40.87543434 -49.48046875 32.640625 C-49.95914744 22.61566569 -48.96527755 14.80760142 -42.25 6.953125 C-31.13238736 -4.64369508 -14.43157263 -8.42665456 0 0 Z M-34.98828125 4.75390625 C-35.42527344 5.35074219 -35.86226562 5.94757813 -36.3125 6.5625 C-38.1923938 9.06722957 -39.2937895 10.19585967 -42 12 C-42.76161182 14.38384315 -42.76161182 14.38384315 -43.125 17.0625 C-43.9193825 21.9193825 -43.9193825 21.9193825 -45 23 C-45.05031433 31.07041796 -45.07783396 38.45226673 -40 45 C-39.46890625 45.68707031 -38.9378125 46.37414062 -38.390625 47.08203125 C-33.72243971 52.81398442 -29.37617817 55.7965729 -22 57 C-9.74909486 57.9958045 -9.74909486 57.9958045 1 53 C7.84468852 46.61763805 12.51415489 41.06250201 13.26953125 31.63671875 C13.59097566 20.3623537 10.94920336 14.666213 3.546875 6.33203125 C-2.64652309 0.66108238 -7.25511768 -0.63897248 -15.4375 -0.4375 C-16.24509766 -0.44458984 -17.05269531 -0.45167969 -17.88476562 -0.45898438 C-24.16800115 -0.39316482 -30.10139548 0.44307774 -34.98828125 4.75390625 Z " fill="#1F2227" transform="translate(144,233)"/>
<path d="M0 0 C0.07612856 6.60189418 0.12863283 13.20367494 0.16479492 19.8059082 C0.17987182 22.05139394 0.20033653 24.29685029 0.22631836 26.54223633 C0.26274918 29.77172099 0.27973755 33.00081594 0.29296875 36.23046875 C0.30845261 37.23272995 0.32393646 38.23499115 0.33988953 39.2676239 C0.34198314 47.95828758 0.34198314 47.95828758 -3 52 C-7.07030734 55.96319399 -7.07030734 55.96319399 -10.6640625 56.10546875 C-11.43492187 56.07066406 -12.20578125 56.03585937 -13 56 C-13.1015993 49.27405734 -13.17154911 42.54831332 -13.21972656 35.82177734 C-13.23981517 33.53459274 -13.26709128 31.24745932 -13.30175781 28.96044922 C-13.35039558 25.66881666 -13.37299679 22.37786443 -13.390625 19.0859375 C-13.41127014 18.06696381 -13.43191528 17.04799011 -13.45318604 15.99813843 C-13.4550725 10.00050048 -13.00165533 6.56732948 -9 2 C-5.96215227 -0.15589193 -3.64540266 -0.06005606 0 0 Z " fill="#AD3F01" transform="translate(397,242)"/>
<path d="M0 0 C0.07612856 6.60189418 0.12863283 13.20367494 0.16479492 19.8059082 C0.17987182 22.05139394 0.20033653 24.29685029 0.22631836 26.54223633 C0.26274918 29.77172099 0.27973755 33.00081594 0.29296875 36.23046875 C0.30845261 37.23272995 0.32393646 38.23499115 0.33988953 39.2676239 C0.34111322 44.34724612 0.32269465 47.87536528 -3 52 C-3.4125 52.5775 -3.825 53.155 -4.25 53.75 C-6.92119956 55.65799969 -9.79494324 55.60121414 -13 56 C-13.07612011 49.25568885 -13.12862932 42.51148866 -13.16479492 35.7668457 C-13.17987308 33.47285828 -13.2003387 31.17889963 -13.22631836 28.88500977 C-13.26274358 25.58602795 -13.27973631 22.2874276 -13.29296875 18.98828125 C-13.30845261 17.96414627 -13.32393646 16.94001129 -13.33988953 15.88484192 C-13.34199719 6.94963304 -13.34199719 6.94963304 -10 3 C-6.49246031 0.32319339 -4.32950591 -0.13755955 0 0 Z " fill="#AD3E01" transform="translate(230,242)"/>
<path d="M0 0 C1.21128319 -0.00574036 1.21128319 -0.00574036 2.44703674 -0.01159668 C4.15423835 -0.01431753 5.86148152 -0.00694409 7.56860352 0.00976562 C10.17884627 0.03114712 12.78632811 0.0099865 15.39648438 -0.015625 C17.05599565 -0.01298121 18.71550521 -0.00785516 20.375 0 C21.15427353 -0.00809692 21.93354706 -0.01619385 22.73643494 -0.02453613 C26.01563539 0.03204193 28.33210114 0.27262873 31.15258789 2.00195312 C32.75390625 4.53125 32.75390625 4.53125 34.75390625 13.53125 C18.58390625 13.53125 2.41390625 13.53125 -14.24609375 13.53125 C-9.7021612 -0.10054766 -9.7021612 -0.10054766 0 0 Z " fill="#C07126" transform="translate(117.24609375,192.46875)"/>
<path d="M0 0 C4.11733945 3.81775692 7.6123335 7.42202886 8.23828125 13.19921875 C8.42243443 19.37319628 7.71368903 23.95845123 4 29 C0.10506397 33.06312645 -3.12606578 35.80047453 -8.92578125 36.203125 C-16.83009132 36.31252722 -21.55063587 35.9680575 -27.6875 30.6875 C-32.40127299 25.20933139 -33.57547962 20.80537319 -33.34375 13.6796875 C-32.51154327 7.19225774 -28.77207768 3.19846623 -23.7890625 -0.77734375 C-16.09277684 -6.03703242 -7.51612061 -4.77697102 0 0 Z M-28 8 C-28.33 8.33 -28.66 8.66 -29 9 C-29.52092816 14.49109524 -29.75641871 19.3998835 -27.375 24.4375 C-26.59125 25.283125 -25.8075 26.12875 -25 27 C-24.175 27.94875 -23.35 28.8975 -22.5 29.875 C-18.71256347 32.82612441 -14.63590568 32.74771044 -9.98828125 32.5625 C-5.36391827 31.69203167 -2.1076776 29.49933012 1 26 C1.33 25.01 1.66 24.02 2 23 C2.66 23 3.32 23 4 23 C4.54887299 14.52821698 4.54887299 14.52821698 2.5 6.4375 C-1.9471731 2.10150622 -6.35423906 -0.1942833 -12.625 -0.4375 C-19.47797642 -0.08425379 -23.44616066 3.05583157 -28 8 Z " fill="#0F1A22" transform="translate(140,245)"/>
<path d="M0 0 C8.00329877 -0.78463713 8.00329877 -0.78463713 11.9375 2.3125 C15.43303947 6.86729386 16.23848254 8.95663159 16.125 14.6875 C16.10695312 15.86699219 16.08890625 17.04648437 16.0703125 18.26171875 C16.04710937 19.16535156 16.02390625 20.06898438 16 21 C15.34 21 14.68 21 14 21 C13.814375 21.556875 13.62875 22.11375 13.4375 22.6875 C10.77682575 26.9677151 6.9467089 29.54438728 2.0625 30.6875 C-2.77296602 29.60198722 -6.52110098 26.47889902 -10 23 C-10.04063832 21.33382885 -10.042721 19.66611905 -10 18 C-8.87851563 18.01740234 -8.87851563 18.01740234 -7.734375 18.03515625 C-6.74953125 18.04417969 -5.7646875 18.05320312 -4.75 18.0625 C-3.77546875 18.07410156 -2.8009375 18.08570313 -1.796875 18.09765625 C0.65758678 18.01195577 2.66168914 17.70706066 5 17 C5.70713777 10.26054043 5.70713777 10.26054043 3.88671875 3.93359375 C2.39205425 2.12262025 2.39205425 2.12262025 0 0 Z " fill="#4389C4" transform="translate(128,247)"/>
<path d="M0 0 C1.26092972 0.00212242 1.26092972 0.00212242 2.54733276 0.00428772 C5.23732025 0.00989388 7.92722509 0.02244739 10.6171875 0.03515625 C12.43880088 0.04017046 14.26041557 0.0447335 16.08203125 0.04882812 C20.55211527 0.05986531 25.02213736 0.07713405 29.4921875 0.09765625 C29.4921875 0.42765625 29.4921875 0.75765625 29.4921875 1.09765625 C17.6121875 1.42765625 5.7321875 1.75765625 -6.5078125 2.09765625 C-10.22292093 9.89499841 -10.22292093 9.89499841 -12.5078125 19.09765625 C-26.0378125 19.42765625 -39.5678125 19.75765625 -53.5078125 20.09765625 C-53.0128125 18.61265625 -53.0128125 18.61265625 -52.5078125 17.09765625 C-50.1978125 17.09765625 -47.8878125 17.09765625 -45.5078125 17.09765625 C-45.5696875 16.00453125 -45.6315625 14.91140625 -45.6953125 13.78515625 C-45.5078125 10.09765625 -45.5078125 10.09765625 -44.5078125 8.37890625 C-41.32898021 6.34246681 -37.96391827 6.7860509 -34.3203125 6.91015625 C-33.57072266 6.92369141 -32.82113281 6.93722656 -32.04882812 6.95117188 C-30.20151483 6.98647086 -28.35457184 7.04027708 -26.5078125 7.09765625 C-26.5078125 7.75765625 -26.5078125 8.41765625 -26.5078125 9.09765625 C-25.8478125 9.09765625 -25.1878125 9.09765625 -24.5078125 9.09765625 C-24.5078125 11.73765625 -24.5078125 14.37765625 -24.5078125 17.09765625 C-21.0428125 16.60265625 -21.0428125 16.60265625 -17.5078125 16.09765625 C-17.33765625 15.43378906 -17.1675 14.76992187 -16.9921875 14.0859375 C-15.58397829 8.95496247 -14.36843678 4.95828053 -10.5078125 1.09765625 C-7.22889325 -0.54180338 -3.60167716 -0.02264553 0 0 Z " fill="#3E3B34" transform="translate(116.5078125,187.90234375)"/>
<path d="M0 0 C0.79792969 0.00386719 1.59585938 0.00773438 2.41796875 0.01171875 C3.21589844 0.00785156 4.01382813 0.00398437 4.8359375 0 C10.79136108 0.01011108 10.79136108 0.01011108 11.91796875 1.13671875 C12.01689815 3.30152672 12.04767975 5.4696566 12.04296875 7.63671875 C12.04683594 9.415625 12.04683594 9.415625 12.05078125 11.23046875 C11.91796875 14.13671875 11.91796875 14.13671875 10.91796875 15.13671875 C8.05529308 15.20997043 5.21724975 15.2291008 2.35546875 15.19921875 C1.54916016 15.19470703 0.74285156 15.19019531 -0.08789062 15.18554688 C-2.08596881 15.17372393 -4.08400908 15.15578789 -6.08203125 15.13671875 C-7.45455856 12.39166412 -7.2143238 10.13344463 -7.20703125 7.07421875 C-7.20960938 5.99011719 -7.2121875 4.90601563 -7.21484375 3.7890625 C-6.96623186 -1.17586312 -4.36121578 0.00740444 0 0 Z " fill="#19130E" transform="translate(175.08203125,216.86328125)"/>
<path d="M0 0 C4.10403363 -0.08694042 8.20783129 -0.14037149 12.3125 -0.1875 C13.47974609 -0.21263672 14.64699219 -0.23777344 15.84960938 -0.26367188 C16.96787109 -0.27333984 18.08613281 -0.28300781 19.23828125 -0.29296875 C20.26993408 -0.3086792 21.30158691 -0.32438965 22.36450195 -0.34057617 C25 0 25 0 26.86010742 1.01831055 C28 3 28 3 28 11 C17.11 11 6.22 11 -5 11 C-4.67 9.68 -4.34 8.36 -4 7 C2.27 7 8.54 7 15 7 C14.67 5.68 14.34 4.36 14 3 C9.05 3 4.1 3 -1 3 C-0.67 2.01 -0.34 1.02 0 0 Z " fill="#F19335" transform="translate(122,194)"/>
<path d="M0 0 C1.48040171 2.76091796 2.39729832 5.35208082 3.1875 8.375 C4.59370556 12.54536454 6.24949214 15.28576524 9.78125 17.95703125 C14.4127455 20.1341603 19.06046438 20.0062017 24 19 C27.75235756 17.07720808 31.08363136 14.83273728 33 11 C33.99 11 34.98 11 36 11 C36.23828125 13.265625 36.23828125 13.265625 36 16 C34.35546875 17.984375 34.35546875 17.984375 32.1875 19.75 C31.47980469 20.34296875 30.77210938 20.9359375 30.04296875 21.546875 C24.80814137 25.27030862 18.13687361 24.41618748 12 24 C7.24294738 22.386 4.1783179 19.88461076 1 16 C-1.02954927 10.87780422 -1.28042456 6.4215415 -1 1 C-0.67 0.67 -0.34 0.34 0 0 Z " fill="#080F15" transform="translate(109,257)"/>
<path d="M0 0 C6.39297917 5.57408228 11.02786768 10.95211728 14.12109375 18.83984375 C13.46109375 19.16984375 12.80109375 19.49984375 12.12109375 19.83984375 C11.77111328 19.03933594 11.77111328 19.03933594 11.4140625 18.22265625 C6.20173979 7.57699361 -3.34557719 -0.56245657 -14.50390625 -4.41015625 C-23.56370045 -6.36284976 -32.39296874 -5.79025174 -40.87890625 -2.16015625 C-41.98492187 -1.75990234 -41.98492187 -1.75990234 -43.11328125 -1.3515625 C-53.07966364 2.51470653 -59.53993444 9.79499739 -64.87890625 18.83984375 C-65.53890625 18.50984375 -66.19890625 18.17984375 -66.87890625 17.83984375 C-60.88166556 7.2702387 -55.35252196 -0.70153759 -43.81640625 -5.41015625 C-29.26389869 -9.1256901 -12.39804666 -9.30274058 0 0 Z " fill="#4C4745" transform="translate(153.87890625,226.16015625)"/>
<path d="M0 0 C8.05718867 -0.48102619 8.05718867 -0.48102619 12.0625 1.5625 C14 4 14 4 14.5625 7.5 C14 11 14 11 12.625 13.4375 C8.47360478 15.90856858 4.77353037 15.25123844 0 15 C0 10.05 0 5.1 0 0 Z " fill="#FBEDC1" transform="translate(350,254)"/>
<path d="M0 0 C1.17755859 -0.01160156 1.17755859 -0.01160156 2.37890625 -0.0234375 C3.05824219 0.10804688 3.73757812 0.23953125 4.4375 0.375 C6.92136059 4.10079089 6.8179212 5.96211402 6.4375 10.375 C5.4375 13.3125 5.4375 13.3125 3.4375 15.375 C0.64331569 16.03861877 -1.76205997 15.98759626 -4.5625 15.375 C-6.5625 13.875 -6.5625 13.875 -7.5625 11.375 C-8.04786893 7.92888058 -8.44810771 4.60702839 -6.32421875 1.65234375 C-4.08722894 0.03040214 -2.74279903 -0.02711169 0 0 Z " fill="#291C11" transform="translate(76.5625,219.625)"/>
<path d="M0 0 C0.66 0.33 1.32 0.66 2 1 C2.75816396 12.84982191 2.56233233 22.45867171 -5.67578125 31.92578125 C-12.16952975 37.94182871 -19.82520532 41.14871912 -28.625 41.125 C-30.06746094 41.12886719 -30.06746094 41.12886719 -31.5390625 41.1328125 C-34 41 -34 41 -36 40 C-36 39.34 -36 38.68 -36 38 C-34.65808594 37.97873047 -34.65808594 37.97873047 -33.2890625 37.95703125 C-22.48089397 37.53069624 -15.13164275 35.64128158 -7.5625 27.6875 C-0.63603884 19.15510531 -0.40116555 10.62397039 0 0 Z " fill="#15171B" transform="translate(157,253)"/>
<path d="M0 0 C0.70125 0.00515625 1.4025 0.0103125 2.125 0.015625 C2.82625 0.01046875 3.5275 0.0053125 4.25 0 C6.125 0.265625 6.125 0.265625 8.125 2.265625 C8.390625 4.54296875 8.390625 4.54296875 8.375 7.203125 C8.38015625 8.07839844 8.3853125 8.95367187 8.390625 9.85546875 C8.125 12.265625 8.125 12.265625 6.125 15.265625 C4.25 15.6640625 4.25 15.6640625 2.125 15.640625 C1.42375 15.64835937 0.7225 15.65609375 0 15.6640625 C-1.875 15.265625 -1.875 15.265625 -3.875 12.265625 C-4.140625 9.85546875 -4.140625 9.85546875 -4.125 7.203125 C-4.13015625 6.32527344 -4.1353125 5.44742187 -4.140625 4.54296875 C-3.79994997 1.62218136 -2.99520014 0.42432002 0 0 Z " fill="#131619" transform="translate(66.875,256.734375)"/>
<path d="M0 0 C0.99 1.0209375 0.99 1.0209375 2 2.0625 C15.13711385 15.08859599 27.45922374 19.13277014 46 20 C39.89285834 23.82652986 30.71973346 22.78831915 23.921875 21.34765625 C14.2354457 18.12345907 4.921288 12.20240845 0 3 C0 2.01 0 1.02 0 0 Z " fill="#323435" transform="translate(91,283)"/>
<path d="M0 0 C4.29 0 8.58 0 13 0 C13 2.64 13 5.28 13 8 C8.71 8 4.42 8 0 8 C0 5.36 0 2.72 0 0 Z " fill="#CED1E6" transform="translate(171,221)"/>
<path d="M0 0 C3.875 1.875 3.875 1.875 5 3 C5.07205511 4.68608966 5.08386068 6.37500659 5.0625 8.0625 C5.05347656 8.98160156 5.04445313 9.90070313 5.03515625 10.84765625 C5.02355469 11.55792969 5.01195313 12.26820313 5 13 C2.83125748 12.49396008 1.00032373 12.00016187 -1 11 C-1.66 11.66 -2.32 12.32 -3 13 C-4 12 -4 12 -4.3125 8.75 C-3.95628972 4.47547661 -2.93261437 3.02425856 0 0 Z " fill="#21262B" transform="translate(66,276)"/>
<path d="M0 0 C1.65 0 3.3 0 5 0 C6.84586777 3.14969501 7.27170838 5.48884674 7.25 9.125 C7.25515625 9.99382812 7.2603125 10.86265625 7.265625 11.7578125 C7 14 7 14 5 16 C1.5 16.25 1.5 16.25 -2 16 C-2.66 15.34 -3.32 14.68 -4 14 C-3.625 11.875 -3.625 11.875 -3 10 C-1.02 10.99 0.96 11.98 3 13 C2.88557539 11.39504433 2.75805306 9.79101881 2.625 8.1875 C2.55539063 7.29417969 2.48578125 6.40085937 2.4140625 5.48046875 C2.13354964 2.75601501 2.13354964 2.75601501 0 0 Z " fill="#121518" transform="translate(68,276)"/>
<path d="M0 0 C0.80566406 0.00257813 1.61132812 0.00515625 2.44140625 0.0078125 C3.64603516 0.00394531 3.64603516 0.00394531 4.875 0 C7.00390625 0.1328125 7.00390625 0.1328125 9.00390625 1.1328125 C9.04662725 2.79893155 9.04454457 4.46664135 9.00390625 6.1328125 C8.00390625 7.1328125 8.00390625 7.1328125 6.04296875 7.265625 C5.24632813 7.26304687 4.4496875 7.26046875 3.62890625 7.2578125 C2.83742188 7.26039063 2.0459375 7.26296875 1.23046875 7.265625 C-0.99609375 7.1328125 -0.99609375 7.1328125 -3.99609375 6.1328125 C-2.93032766 0.19497288 -2.93032766 0.19497288 0 0 Z " fill="#D7CEAA" transform="translate(78.99609375,198.8671875)"/>
<path d="M0 0 C0 0.66 0 1.32 0 2 C-1.64753422 3.24235401 -3.34525303 4.4184391 -5.0625 5.5625 C-11.56777212 10.15642928 -15.63329444 15.44994166 -20 22 C-20.66 21.67 -21.32 21.34 -22 21 C-10.08450704 0 -10.08450704 0 0 0 Z " fill="#4E4133" transform="translate(109,223)"/>
<path d="M0 0 C0.66 0.33 1.32 0.66 2 1 C-3.42857143 10.71428571 -3.42857143 10.71428571 -8 13 C-8.68931344 15.34907875 -8.68931344 15.34907875 -9.125 18.0625 C-9.29257813 18.98160156 -9.46015625 19.90070313 -9.6328125 20.84765625 C-9.75398438 21.55792969 -9.87515625 22.26820313 -10 23 C-10.33 23 -10.66 23 -11 23 C-11 20.36 -11 17.72 -11 15 C-11.66 15 -12.32 15 -13 15 C-11.21169455 8.44288001 -5.46175262 3.71399178 0 0 Z " fill="#1D2126" transform="translate(111,232)"/>
<path d="M0 0 C5.61 0 11.22 0 17 0 C17.33 1.32 17.66 2.64 18 4 C11.73 4 5.46 4 -1 4 C-0.67 2.68 -0.34 1.36 0 0 Z " fill="#45290D" transform="translate(119,197)"/>
<path d="M0 0 C0.66 0 1.32 0 2 0 C0.58066537 9.18488964 -5.75637465 17.38399087 -13 23 C-15.2421875 23.71484375 -15.2421875 23.71484375 -17 24 C-15.92086173 20.76258518 -15.46247616 20.38100788 -12.875 18.4375 C-6.96172095 13.56056883 -2.62471686 7.18276175 0 0 Z " fill="#343739" transform="translate(167,274)"/>
<path d="M0 0 C0.66 0.33 1.32 0.66 2 1 C2.738041 18.85649203 2.738041 18.85649203 -2 27 C-3.32 26.34 -4.64 25.68 -6 25 C-5.0409375 23.63875 -5.0409375 23.63875 -4.0625 22.25 C-0.94779237 17.34197586 -0.76749874 12.97358469 -0.4375 7.25 C-0.39431641 6.55261719 -0.35113281 5.85523438 -0.30664062 5.13671875 C-0.20110404 3.42468078 -0.1001009 1.71236439 0 0 Z " fill="#16191D" transform="translate(157,253)"/>
<path d="M0 0 C0.99 0.33 1.98 0.66 3 1 C3 7.27 3 13.54 3 20 C2.01 20 1.02 20 0 20 C0 13.4 0 6.8 0 0 Z " fill="#07080A" transform="translate(183,283)"/>
<path d="M0 0 C6.78732321 2.28638224 11.95894905 7.39559087 15.46875 13.59375 C16.40592313 15.70908365 17.2592815 17.80892361 18 20 C17.34 20.33 16.68 20.66 16 21 C15.76667969 20.46632812 15.53335938 19.93265625 15.29296875 19.3828125 C12.09950744 12.86047808 7.696586 8.68047352 2.23046875 4.06640625 C1.49441406 3.38449219 0.75835937 2.70257813 0 2 C0 1.34 0 0.68 0 0 Z " fill="#494038" transform="translate(150,225)"/>
<path d="M0 0 C3 0.125 3 0.125 4 1.125 C4.1875 3.5625 4.1875 3.5625 4 6.125 C3.34 6.785 2.68 7.445 2 8.125 C-0.625 7.75 -0.625 7.75 -3 7.125 C-3.38133299 5.1335944 -3.71325582 3.13220923 -4 1.125 C-3 0.125 -3 0.125 0 0 Z " fill="#3C7EB6" transform="translate(76,223.875)"/>
<path d="M0 0 C3.37944867 2.89667029 5.6971335 6.50158154 6.2409668 10.98779297 C6.2939239 13.12447541 6.26281694 15.23908883 6.1875 17.375 C6.17396484 18.11105469 6.16042969 18.84710938 6.14648438 19.60546875 C6.11144869 21.40396743 6.05765288 23.20208422 6 25 C5.67 25 5.34 25 5 25 C4.67 20.38 4.34 15.76 4 11 C3.34 11 2.68 11 2 11 C-1.07692308 4.6 -1.07692308 4.6 -0.6875 1.5625 C-0.460625 1.046875 -0.23375 0.53125 0 0 Z " fill="#2C2E34" transform="translate(154,243)"/>
<path d="M0 0 C1.88951354 3.77902707 0.50766056 8.41523952 -0.73828125 12.3046875 C-1.45625106 14.21700519 -2.22395684 16.11050361 -3 18 C-3.33 18 -3.66 18 -4 18 C-4.38333333 6.03148148 -4.38333333 6.03148148 -2 1 C-1.34 0.67 -0.68 0.34 0 0 Z " fill="#0C0D0F" transform="translate(100,246)"/>
<path d="M0 0 C1.58206057 0.00667536 3.16410534 0.0186375 4.74609375 0.03515625 C5.55240234 0.03966797 6.35871094 0.04417969 7.18945312 0.04882812 C9.18753131 0.06065107 11.18557158 0.07858711 13.18359375 0.09765625 C13.18359375 0.42765625 13.18359375 0.75765625 13.18359375 1.09765625 C8.56359375 1.42765625 3.94359375 1.75765625 -0.81640625 2.09765625 C3.14359375 2.42765625 7.10359375 2.75765625 11.18359375 3.09765625 C11.18359375 3.42765625 11.18359375 3.75765625 11.18359375 4.09765625 C6.89359375 4.09765625 2.60359375 4.09765625 -1.81640625 4.09765625 C-1.81640625 6.73765625 -1.81640625 9.37765625 -1.81640625 12.09765625 C-2.14640625 12.09765625 -2.47640625 12.09765625 -2.81640625 12.09765625 C-2.81640625 8.79765625 -2.81640625 5.49765625 -2.81640625 2.09765625 C-3.47640625 1.76765625 -4.13640625 1.43765625 -4.81640625 1.09765625 C-3.81640625 0.09765625 -3.81640625 0.09765625 0 0 Z " fill="#5F4734" transform="translate(172.81640625,216.90234375)"/>
<path d="M0 0 C-1.15234375 1.484375 -1.15234375 1.484375 -3 3 C-5.62890625 3.328125 -5.62890625 3.328125 -8.5625 3.25 C-9.53316406 3.23453125 -10.50382812 3.2190625 -11.50390625 3.203125 C-14 3 -14 3 -16 2 C-16 1.34 -16 0.68 -16 0 C-13.7089095 -0.19441368 -11.41709663 -0.38033135 -9.125 -0.5625 C-7.21074219 -0.71912109 -7.21074219 -0.71912109 -5.2578125 -0.87890625 C-2 -1 -2 -1 0 0 Z " fill="#0C0D0F" transform="translate(137,291)"/>
<path d="M0 0 C3.375 -0.125 3.375 -0.125 7 0 C9 2 9 2 9.125 5.625 C9.08375 6.73875 9.0425 7.8525 9 9 C8.01 9.33 7.02 9.66 6 10 C5.67 8.02 5.34 6.04 5 4 C3.02 3.34 1.04 2.68 -1 2 C-0.67 1.34 -0.34 0.68 0 0 Z " fill="#130F0D" transform="translate(74,221)"/>
<path d="M0 0 C1.32 0 2.64 0 4 0 C4 2.31 4 4.62 4 7 C6.97 7 9.94 7 13 7 C13 7.33 13 7.66 13 8 C8.71 8 4.42 8 0 8 C0 5.36 0 2.72 0 0 Z " fill="#A0A4B9" transform="translate(171,221)"/>
<path d="M0 0 C0.680625 0.70125 1.36125 1.4025 2.0625 2.125 C5.20780513 5.27934337 8.5888386 8.13934304 12 11 C10.02 11.99 10.02 11.99 8 13 C7.03958829 11.89764064 6.08175593 10.79303376 5.125 9.6875 C4.59132813 9.07261719 4.05765625 8.45773437 3.5078125 7.82421875 C0 3.58031088 0 3.58031088 0 0 Z " fill="#363A3D" transform="translate(91,283)"/>
<path d="M0 0 C1.32 0 2.64 0 4 0 C4 2.97 4 5.94 4 9 C2.68 9 1.36 9 0 9 C0 6.03 0 3.06 0 0 Z " fill="#BFC3D8" transform="translate(67,260)"/>
<path d="M0 0 C0.66 0.33 1.32 0.66 2 1 C1.38722388 3.96175123 0.74627478 5.38058783 -1 8 C-1.99 8 -2.98 8 -4 8 C-4.33 9.32 -4.66 10.64 -5 12 C-5.33 11.34 -5.66 10.68 -6 10 C-5.29296875 8.125 -5.29296875 8.125 -4.1875 6 C-3.83042969 5.29875 -3.47335938 4.5975 -3.10546875 3.875 C-2 2 -2 2 0 0 Z " fill="#7E7B72" transform="translate(106,189)"/>
<path d="M0 0 C0.66 0.33 1.32 0.66 2 1 C1.24203125 1.54914063 1.24203125 1.54914063 0.46875 2.109375 C-2.87691727 4.89743106 -4.80904415 6.71144921 -5.46484375 11.13671875 C-5.44014239 14.11852587 -5.30676588 17.03459654 -5 20 C-5.66 19.67 -6.32 19.34 -7 19 C-7.78693051 8.03543488 -7.78693051 8.03543488 -4.625 3.875 C-3.75875 3.25625 -2.8925 2.6375 -2 2 C-1.34 1.34 -0.68 0.68 0 0 Z " fill="#266190" transform="translate(118,247)"/>
<path d="M0 0 C0.66 0.33 1.32 0.66 2 1 C-0.28538605 5.08963819 -2.95706926 8.46362104 -6 12 C-6 9 -6 9 -5 7 C-5.66 6.67 -6.32 6.34 -7 6 C-4.69 4.02 -2.38 2.04 0 0 Z " fill="#2C333A" transform="translate(111,232)"/>
<path d="M0 0 C0.99 0 1.98 0 3 0 C3 2.97 3 5.94 3 9 C1.68 8.67 0.36 8.34 -1 8 C-0.67 5.36 -0.34 2.72 0 0 Z " fill="#B6B9CE" transform="translate(68,280)"/>
<path d="M0 0 C-1.38188453 3.21043882 -2.92421903 5.04936365 -5.625 7.25 C-6.57246094 8.03117187 -6.57246094 8.03117187 -7.5390625 8.828125 C-8.02117187 9.21484375 -8.50328125 9.6015625 -9 10 C-9.66 9.67 -10.32 9.34 -11 9 C-9.33333333 7.33333333 -7.66666667 5.66666667 -6 4 C-5.278125 3.236875 -4.55625 2.47375 -3.8125 1.6875 C-2 0 -2 0 0 0 Z " fill="#2F2F2F" transform="translate(161,288)"/>
<path d="M0 0 C0 0.33 0 0.66 0 1 C-1.41601714 1.48108275 -2.83284437 1.95978141 -4.25 2.4375 C-5.03890625 2.70433594 -5.8278125 2.97117188 -6.640625 3.24609375 C-8.74821988 3.91954708 -10.84753973 4.49150595 -13 5 C-13 4.34 -13 3.68 -13 3 C-13.66 2.67 -14.32 2.34 -15 2 C-9.87080814 -0.10428384 -5.4389165 -0.21755666 0 0 Z " fill="#554D47" transform="translate(122,220)"/>
<path d="M0 0 C0 0.66 0 1.32 0 2 C-4.46204176 2.9154645 -8.34545385 2.97847873 -12.875 2.5625 C-14.02742187 2.46066406 -15.17984375 2.35882813 -16.3671875 2.25390625 C-17.23601562 2.17011719 -18.10484375 2.08632813 -19 2 C-19 1.67 -19 1.34 -19 1 C-16.95857606 0.83038614 -14.91684689 0.66444404 -12.875 0.5 C-11.16957031 0.36078125 -11.16957031 0.36078125 -9.4296875 0.21875 C-6.27402851 0.0174779 -3.16078835 -0.03842904 0 0 Z " fill="#4C5056" transform="translate(143,301)"/>
<path d="M0 0 C1.65 0 3.3 0 5 0 C4.67 1.65 4.34 3.3 4 5 C2.35 4.67 0.7 4.34 -1 4 C-0.67 2.68 -0.34 1.36 0 0 Z " fill="#A3C7E3" transform="translate(120,252)"/>
<path d="M0 0 C1.4540625 0.0309375 1.4540625 0.0309375 2.9375 0.0625 C1.6175 0.3925 0.2975 0.7225 -1.0625 1.0625 C-1.0625 3.0425 -1.0625 5.0225 -1.0625 7.0625 C-0.0725 7.3925 0.9175 7.7225 1.9375 8.0625 C0.2875 7.7325 -1.3625 7.4025 -3.0625 7.0625 C-3.44383299 5.0710944 -3.77575582 3.06970923 -4.0625 1.0625 C-3.0625 0.0625 -3.0625 0.0625 0 0 Z " fill="#286391" transform="translate(76.0625,223.9375)"/>
<path d="M0 0 C0.99 0 1.98 0 3 0 C3 2.31 3 4.62 3 7 C2.01 7.33 1.02 7.66 0 8 C0 5.36 0 2.72 0 0 Z " fill="#08090B" transform="translate(183,271)"/>
<path d="M0 0 C0.8353125 0.37125 0.8353125 0.37125 1.6875 0.75 C-1.125 2.8125 -1.125 2.8125 -4.3125 4.75 C-5.3025 4.42 -6.2925 4.09 -7.3125 3.75 C-2.88173077 -0.31153846 -2.88173077 -0.31153846 0 0 Z " fill="#0E1113" transform="translate(117.3125,231.25)"/>
<path d="M0 0 C0.99 0 1.98 0 3 0 C2.125 3.875 2.125 3.875 1 5 C-1.67058851 5.14115161 -4.32432238 5.04247107 -7 5 C-7 4.67 -7 4.34 -7 4 C-5.02 3.67 -3.04 3.34 -1 3 C-0.67 2.01 -0.34 1.02 0 0 Z " fill="#3B2613" transform="translate(79,230)"/>
<path d="M0 0 C0.99 0 1.98 0 3 0 C2.67 3.63 2.34 7.26 2 11 C1.67 11 1.34 11 1 11 C1 8.36 1 5.72 1 3 C0.34 3 -0.32 3 -1 3 C-0.67 2.01 -0.34 1.02 0 0 Z " fill="#283138" transform="translate(99,244)"/>
</svg>
